<svg width="63" height="55" viewBox="0 0 63 55" fill="none" xmlns="http://www.w3.org/2000/svg">
<path d="M8.58334 47.5001C9.0896 47.5001 9.50001 46.9404 9.50001 46.2501C9.50001 45.5597 9.0896 45.0001 8.58334 45.0001C8.07708 45.0001 7.66667 45.5597 7.66667 46.2501C7.66667 46.9404 8.07708 47.5001 8.58334 47.5001Z" fill="#FF7A00" fill-opacity="0.5"/>
<path d="M36.0833 52.5C36.5896 52.5 37 51.9403 37 51.25C37 50.5596 36.5896 50 36.0833 50C35.577 50 35.1666 50.5596 35.1666 51.25C35.1666 51.9403 35.577 52.5 36.0833 52.5Z" fill="#FF7A00" fill-opacity="0.5"/>
<path d="M43.4167 50C43.923 50 44.3334 49.4404 44.3334 48.75C44.3334 48.0596 43.923 47.5 43.4167 47.5C42.9104 47.5 42.5 48.0596 42.5 48.75C42.5 49.4404 42.9104 50 43.4167 50Z" fill="#FF7A00" fill-opacity="0.5"/>
<path d="M54.4167 50C54.923 50 55.3334 49.4404 55.3334 48.75C55.3334 48.0596 54.923 47.5 54.4167 47.5C53.9104 47.5 53.5 48.0596 53.5 48.75C53.5 49.4404 53.9104 50 54.4167 50Z" fill="#FF7A00" fill-opacity="0.5"/>
<path d="M57.1667 45C58.1792 45 59 43.8808 59 42.5001C59 41.1193 58.1792 40.0001 57.1667 40.0001C56.1542 40.0001 55.3334 41.1193 55.3334 42.5001C55.3334 43.8808 56.1542 45 57.1667 45Z" fill="#FF7A00" fill-opacity="0.5"/>
<path d="M24.1667 55C25.1792 55 26 53.8807 26 52.5C26 51.1193 25.1792 50 24.1667 50C23.1542 50 22.3334 51.1193 22.3334 52.5C22.3334 53.8807 23.1542 55 24.1667 55Z" fill="#FF7A00" fill-opacity="0.5"/>
<path d="M40.6667 55C41.6792 55 42.5 53.8807 42.5 52.5C42.5 51.1193 41.6792 50 40.6667 50C39.6542 50 38.8334 51.1193 38.8334 52.5C38.8334 53.8807 39.6542 55 40.6667 55Z" fill="#FF7A00" fill-opacity="0.5"/>
<path d="M49.8333 52.5C50.8458 52.5 51.6666 51.3808 51.6666 50.0001C51.6666 48.6193 50.8458 47.5001 49.8333 47.5001C48.8208 47.5001 48 48.6193 48 50.0001C48 51.3808 48.8208 52.5 49.8333 52.5Z" fill="#FF7A00" fill-opacity="0.5"/>
<path d="M28.75 52.5C29.2563 52.5 29.6667 51.9403 29.6667 51.25C29.6667 50.5596 29.2563 50 28.75 50C28.2437 50 27.8333 50.5596 27.8333 51.25C27.8333 51.9403 28.2437 52.5 28.75 52.5Z" fill="#FF7A00" fill-opacity="0.5"/>
<path d="M21.4167 50C21.923 50 22.3334 49.4404 22.3334 48.75C22.3334 48.0596 21.923 47.5 21.4167 47.5C20.9104 47.5 20.5 48.0596 20.5 48.75C20.5 49.4404 20.9104 50 21.4167 50Z" fill="#FF7A00" fill-opacity="0.5"/>
<path d="M15.9167 50C16.423 50 16.8334 49.4404 16.8334 48.75C16.8334 48.0596 16.423 47.5 15.9167 47.5C15.4104 47.5 15 48.0596 15 48.75C15 49.4404 15.4104 50 15.9167 50Z" fill="#FF7A00" fill-opacity="0.5"/>
<path d="M11.3333 52.5C12.3459 52.5 13.1667 51.3808 13.1667 50.0001C13.1667 48.6193 12.3459 47.5001 11.3333 47.5001C10.3208 47.5001 9.5 48.6193 9.5 50.0001C9.5 51.3808 10.3208 52.5 11.3333 52.5Z" fill="#FF7A00" fill-opacity="0.5"/>
<path d="M8.04311 39.7731C7.78049 40.6905 7.65298 41.6696 7.66784 42.6543C7.6827 43.639 7.83964 44.6101 8.12971 45.5121C8.41979 46.4141 8.8373 47.2293 9.35842 47.9112C9.87955 48.5933 10.4941 49.1286 11.1669 49.4866C11.8397 49.8447 12.5577 50.0187 13.2798 49.9984C14.002 49.9781 14.7141 49.7641 15.3755 49.3686C16.037 48.973 16.6348 48.4036 17.135 47.6931C17.6351 46.9825 18.0276 46.1445 18.2902 45.2269L13.1667 42.5001L8.04311 39.7731Z" fill="#FFFF00"/>
<path d="M20.5 45C20.5 45.985 20.6423 46.9602 20.9187 47.8702C21.1951 48.78 21.6002 49.6069 22.1109 50.3033C22.6216 50.9997 23.228 51.5521 23.8952 51.9291C24.5625 52.306 25.2777 52.5 26 52.5C26.7223 52.5 27.4375 52.306 28.1048 51.9291C28.772 51.5521 29.3784 50.9997 29.8891 50.3033C30.3998 49.6069 30.8049 48.78 31.0813 47.8702C31.3577 46.9602 31.5 45.985 31.5 45H26H20.5Z" fill="#FFFF00"/>
<path d="M33.3875 46.0501C33.4886 47.0253 33.7296 47.9639 34.0968 48.8121C34.4639 49.6602 34.9499 50.4015 35.5271 50.9936C36.1043 51.5857 36.7613 52.0169 37.4608 52.2627C38.1602 52.5085 38.8883 52.564 39.6034 52.4261C40.3186 52.2882 41.0068 51.9596 41.6288 51.459C42.2508 50.9584 42.7945 50.2957 43.2286 49.5086C43.6628 48.7215 43.9791 47.8255 44.1593 46.8717C44.3396 45.918 44.3803 44.9251 44.2792 43.9499L38.8333 45L33.3875 46.0501Z" fill="#FFFF00"/>
<path d="M46.4558 44.8996C46.7106 45.9286 47.1263 46.8698 47.674 47.6581C48.2217 48.4466 48.8885 49.0634 49.6282 49.4659C50.3679 49.8683 51.1629 50.047 51.9582 49.9894C52.7535 49.9319 53.5301 49.6395 54.2344 49.1325C54.9387 48.6255 55.5539 47.9159 56.0373 47.0528C56.5208 46.1898 56.861 45.1939 57.0346 44.134C57.2081 43.074 57.2107 41.9753 57.0423 40.9139C56.8739 39.8524 56.5384 38.8536 56.0591 37.9863L51.6667 42.5001L46.4558 44.8996Z" fill="#FFFF00"/>
<g filter="url(#filter0_d)">
<path d="M31.5 47.5C46.6878 47.5 59 40.7842 59 32.5C59 24.2157 46.6878 17.5 31.5 17.5C16.3122 17.5 4 24.2157 4 32.5C4 40.7842 16.3122 47.5 31.5 47.5Z" fill="#00FFFF"/>
</g>
<g filter="url(#filter1_i)">
<path fill-rule="evenodd" clip-rule="evenodd" d="M47.0564 9.51903C51.1821 15.6139 53.5 23.8804 53.5 32.5C53.5 34.1415 52.931 35.767 51.8253 37.2836C50.7197 38.8001 49.0992 40.1781 47.0564 41.3388C45.0135 42.4996 42.5882 43.4204 39.919 44.0485C37.2499 44.6767 34.3891 45 31.5 45C28.6109 45 25.7501 44.6767 23.081 44.0485C20.4118 43.4204 17.9865 42.4996 15.9436 41.3388C13.9008 40.1781 12.2803 38.8001 11.1747 37.2836C10.0691 35.767 9.5 34.1415 9.5 32.5C9.5 23.8804 11.8178 15.6139 15.9437 9.51903C20.0695 3.42409 25.6652 0 31.5 0C37.3348 0 42.9305 3.4241 47.0564 9.51903Z" fill="#FF0000"/>
</g>
<path d="M31.5 32.5C34.5376 32.5 37 29.1421 37 25C37 20.8578 34.5376 17.5 31.5 17.5C28.4624 17.5 26 20.8578 26 25C26 29.1421 28.4624 32.5 31.5 32.5Z" fill="#00FA00"/>
<path d="M34.25 25C34.7563 25 35.1667 24.4404 35.1667 23.75C35.1667 23.0597 34.7563 22.5 34.25 22.5C33.7437 22.5 33.3333 23.0597 33.3333 23.75C33.3333 24.4404 33.7437 25 34.25 25Z" fill="black"/>
<path d="M29.6667 25C30.6792 25 31.5 23.8807 31.5 22.5C31.5 21.1193 30.6792 20 29.6667 20C28.6542 20 27.8334 21.1193 27.8334 22.5C27.8334 23.8807 28.6542 25 29.6667 25Z" fill="black"/>
<path d="M33.2603 28.1985C33.1245 28.835 32.8087 29.372 32.3826 29.6913C31.9564 30.0105 31.4547 30.0856 30.9878 29.9005C30.5209 29.7151 30.1271 29.2846 29.8931 28.7035C29.659 28.1223 29.6038 27.4381 29.7397 26.8016L31.5 27.5001L33.2603 28.1985Z" fill="black"/>
<path d="M30.9323 17.779C30.9991 17.2207 30.8975 16.7071 30.8104 16.1725C30.7482 15.7906 30.6828 15.3751 30.5869 15.0091C30.3966 14.2825 30.2252 13.6233 29.9573 12.984C29.8311 12.6828 29.6132 12.4601 29.3885 12.307C29.1862 12.169 28.9325 11.7961 28.6979 11.7961C28.4005 11.7961 28.2779 11.8479 28.0479 12.1285C27.9743 12.2183 27.9071 12.296 27.8358 12.3931C27.757 12.5006 27.752 12.6877 27.6417 12.7378" stroke="#00FA00" stroke-linecap="round" stroke-linejoin="round"/>
<path d="M34.954 19.053C35.2718 17.6718 35.1568 16.0608 34.6494 14.8152C34.5474 14.5647 34.4645 14.2615 34.3131 14.055C34.1853 13.8807 34.0051 13.7013 33.8978 13.5011C33.6988 13.1297 33.3308 12.9723 33.0763 12.6947C32.9827 12.5926 32.9975 13.0177 32.9838 13.0702C32.9528 13.1886 32.9191 13.4605 32.8416 13.5134" stroke="#00FA00" stroke-linecap="round" stroke-linejoin="round"/>
<path d="M31.5 32.5L36.7308 36.8186L34.7328 43.8064H28.2672L26.2692 36.8186L31.5 32.5Z" fill="#00FA00"/>
<defs>
<filter id="filter0_d" x="0" y="14.25" width="63" height="38" filterUnits="userSpaceOnUse" color-interpolation-filters="sRGB">
<feFlood flood-opacity="0" result="BackgroundImageFix"/>
<feColorMatrix in="SourceAlpha" type="matrix" values="0 0 0 0 0 0 0 0 0 0 0 0 0 0 0 0 0 0 127 0"/>
<feOffset dy="0.75"/>
<feGaussianBlur stdDeviation="2"/>
<feColorMatrix type="matrix" values="0 0 0 0 0 0 0 0 0 0.620833 0 0 0 0 0.620833 0 0 0 1 0"/>
<feBlend mode="normal" in2="BackgroundImageFix" result="effect1_dropShadow"/>
<feBlend mode="normal" in="SourceGraphic" in2="effect1_dropShadow" result="shape"/>
</filter>
<filter id="filter1_i" x="9.5" y="0" width="44" height="47" filterUnits="userSpaceOnUse" color-interpolation-filters="sRGB">
<feFlood flood-opacity="0" result="BackgroundImageFix"/>
<feBlend mode="normal" in="SourceGraphic" in2="BackgroundImageFix" result="shape"/>
<feColorMatrix in="SourceAlpha" type="matrix" values="0 0 0 0 0 0 0 0 0 0 0 0 0 0 0 0 0 0 127 0" result="hardAlpha"/>
<feOffset dy="4"/>
<feGaussianBlur stdDeviation="1"/>
<feComposite in2="hardAlpha" operator="arithmetic" k2="-1" k3="1"/>
<feColorMatrix type="matrix" values="0 0 0 0 1 0 0 0 0 1 0 0 0 0 1 0 0 0 0.25 0"/>
<feBlend mode="normal" in2="shape" result="effect1_innerShadow"/>
</filter>
</defs>
</svg>
