<svg width="55" height="55" viewBox="0 0 55 55" fill="none" xmlns="http://www.w3.org/2000/svg">
<ellipse cx="4.58334" cy="44.974" rx="0.916667" ry="1.43229" fill="#FF7A00" fill-opacity="0.5"/>
<ellipse cx="32.0833" cy="50.7031" rx="0.916667" ry="1.43229" fill="#FF7A00" fill-opacity="0.5"/>
<ellipse cx="39.4167" cy="47.8385" rx="0.916667" ry="1.43229" fill="#FF7A00" fill-opacity="0.5"/>
<ellipse cx="50.4167" cy="47.8385" rx="0.916667" ry="1.43229" fill="#FF7A00" fill-opacity="0.5"/>
<ellipse cx="53.1667" cy="40.6771" rx="1.83333" ry="2.86458" fill="#FF7A00" fill-opacity="0.5"/>
<ellipse cx="20.1667" cy="52.1354" rx="1.83333" ry="2.86458" fill="#FF7A00" fill-opacity="0.5"/>
<ellipse cx="36.6667" cy="52.1354" rx="1.83333" ry="2.86458" fill="#FF7A00" fill-opacity="0.5"/>
<ellipse cx="45.8333" cy="49.2708" rx="1.83333" ry="2.86458" fill="#FF7A00" fill-opacity="0.5"/>
<ellipse cx="24.75" cy="50.7031" rx="0.916667" ry="1.43229" fill="#FF7A00" fill-opacity="0.5"/>
<ellipse cx="17.4167" cy="47.8385" rx="0.916667" ry="1.43229" fill="#FF7A00" fill-opacity="0.5"/>
<ellipse cx="11.9167" cy="47.8385" rx="0.916667" ry="1.43229" fill="#FF7A00" fill-opacity="0.5"/>
<ellipse cx="7.33334" cy="49.2708" rx="1.83333" ry="2.86458" fill="#FF7A00" fill-opacity="0.5"/>
<path d="M4.04311 37.5524C3.78049 38.6038 3.65298 39.7256 3.66784 40.8539C3.6827 41.9822 3.83964 43.0949 4.12971 44.1284C4.41979 45.162 4.8373 46.0961 5.35842 46.8775C5.87955 47.6589 6.49407 48.2723 7.16691 48.6827C7.83974 49.093 8.55772 49.2922 9.27983 49.269C10.002 49.2458 10.7141 49.0006 11.3755 48.5473C12.037 48.0941 12.6348 47.4417 13.135 46.6275C13.6351 45.8132 14.0276 44.853 14.2902 43.8017L9.16667 40.6771L4.04311 37.5524Z" fill="#000AFF"/>
<path d="M16.5 43.5417C16.5 44.6702 16.6423 45.7877 16.9187 46.8304C17.1951 47.873 17.6002 48.8204 18.1109 49.6184C18.6216 50.4164 19.228 51.0494 19.8952 51.4813C20.5625 51.9131 21.2777 52.1354 22 52.1354C22.7223 52.1354 23.4375 51.9131 24.1048 51.4813C24.7721 51.0494 25.3784 50.4164 25.8891 49.6184C26.3998 48.8204 26.8049 47.873 27.0813 46.8304C27.3577 45.7877 27.5 44.6702 27.5 43.5417H22L16.5 43.5417Z" fill="#000AFF"/>
<path d="M29.3875 44.7449C29.4886 45.8623 29.7296 46.9377 30.0968 47.9096C30.4639 48.8815 30.9499 49.7309 31.5271 50.4093C32.1043 51.0877 32.7613 51.5819 33.4608 51.8635C34.1602 52.1451 34.8883 52.2088 35.6034 52.0508C36.3186 51.8928 37.0068 51.5162 37.6288 50.9426C38.2508 50.369 38.7945 49.6096 39.2286 48.7077C39.6628 47.8058 39.9791 46.7792 40.1593 45.6863C40.3396 44.5935 40.3803 43.4559 40.2792 42.3384L34.8333 43.5417L29.3875 44.7449Z" fill="#000AFF"/>
<path d="M42.4558 43.4267C42.7106 44.6057 43.1263 45.6841 43.674 46.5875C44.2217 47.4909 44.8885 48.1976 45.6282 48.6588C46.3679 49.12 47.1629 49.3247 47.9582 49.2588C48.7535 49.1928 49.5301 48.8578 50.2344 48.2768C50.9387 47.6958 51.5539 46.8828 52.0373 45.8939C52.5208 44.905 52.861 43.7639 53.0346 42.5494C53.2081 41.3349 53.2107 40.076 53.0423 38.8597C52.8739 37.6434 52.5384 36.4988 52.0591 35.505L47.6667 40.6771L42.4558 43.4267Z" fill="#000AFF"/>
<g filter="url(#filter0_d)">
<ellipse cx="27.5" cy="33.2292" rx="27.5" ry="13.75" fill="#FF00C8"/>
</g>
<path fill-rule="evenodd" clip-rule="evenodd" d="M43.0564 9.21054C47.1821 15.108 49.5 23.1066 49.5 31.4468C49.5 33.0351 48.931 34.6079 47.8253 36.0753C46.7197 37.5427 45.0992 38.876 43.0564 39.9992C41.0135 41.1223 38.5882 42.0132 35.919 42.621C33.2499 43.2288 30.3891 43.5417 27.5 43.5417C24.6109 43.5417 21.7501 43.2288 19.081 42.621C16.4118 42.0132 13.9865 41.1223 11.9436 39.9992C9.90076 38.876 8.28025 37.5427 7.17465 36.0753C6.06905 34.6079 5.5 33.0351 5.5 31.4468C5.5 23.1066 7.81785 15.108 11.9437 9.21054C16.0695 3.31313 21.6652 0 27.5 0C33.3348 0 38.9305 3.31313 43.0564 9.21054Z" fill="url(#paint0_radial)"/>
<ellipse cx="27.5" cy="20.625" rx="5.5" ry="8.59375" fill="#FF0000"/>
<ellipse cx="30.25" cy="19.1927" rx="0.916667" ry="1.43229" fill="#000AFF"/>
<ellipse cx="25.6667" cy="17.7604" rx="1.83333" ry="2.86458" fill="#000AFF"/>
<path d="M29.2603 24.2899C29.1245 25.0194 28.8087 25.6347 28.3826 26.0004C27.9564 26.3661 27.4547 26.4524 26.9878 26.2401C26.5209 26.0279 26.1271 25.5345 25.8931 24.8686C25.659 24.2027 25.6038 23.4188 25.7397 22.6893L27.5 23.4896L29.2603 24.2899Z" fill="#000AFF"/>
<path d="M26.9323 12.3508C26.9991 11.7112 26.8975 11.1228 26.8104 10.51C26.7482 10.0725 26.6828 9.59648 26.5869 9.17707C26.3966 8.34446 26.2252 7.5892 25.9573 6.8567C25.8311 6.5116 25.6132 6.25639 25.3885 6.08089C25.1862 5.92281 24.9325 5.49551 24.6979 5.49551C24.4005 5.49551 24.2779 5.55486 24.0479 5.87636C23.9743 5.9793 23.9071 6.06829 23.8358 6.17963C23.757 6.30277 23.752 6.51714 23.6417 6.57459" stroke="#FF0000" stroke-linecap="round" stroke-linejoin="round"/>
<path d="M30.954 13.8107C31.2718 12.2281 31.1568 10.3821 30.6494 8.9549C30.5474 8.66799 30.4645 8.32039 30.3131 8.08389C30.1853 7.88415 30.0051 7.67862 29.8978 7.44914C29.6988 7.02365 29.3308 6.84331 29.0763 6.52522C28.9827 6.40819 28.9975 6.89533 28.9838 6.95544C28.9528 7.09108 28.9191 7.40267 28.8416 7.46324" stroke="#FF0000" stroke-linecap="round" stroke-linejoin="round"/>
<path d="M27.5 29.2188L32.7308 34.1672L30.7328 42.174H24.2672L22.2692 34.1672L27.5 29.2188Z" fill="#FF0000"/>
<defs>
<filter id="filter0_d" x="0" y="19.4792" width="55" height="28.25" filterUnits="userSpaceOnUse" color-interpolation-filters="sRGB">
<feFlood flood-opacity="0" result="BackgroundImageFix"/>
<feColorMatrix in="SourceAlpha" type="matrix" values="0 0 0 0 0 0 0 0 0 0 0 0 0 0 0 0 0 0 127 0"/>
<feOffset dy="0.75"/>
<feColorMatrix type="matrix" values="0 0 0 0 0.803922 0 0 0 0 0 0 0 0 0 0.784314 0 0 0 1 0"/>
<feBlend mode="normal" in2="BackgroundImageFix" result="effect1_dropShadow"/>
<feBlend mode="normal" in="SourceGraphic" in2="effect1_dropShadow" result="shape"/>
</filter>
<radialGradient id="paint0_radial" cx="0" cy="0" r="1" gradientUnits="userSpaceOnUse" gradientTransform="translate(27.5 31.4468) rotate(90) scale(12.0949 22)">
<stop offset="0.940669" stop-color="#00FF00"/>
<stop offset="1" stop-color="#BCFFBC"/>
</radialGradient>
</defs>
</svg>
