<svg width="55" height="48" viewBox="0 0 55 48" fill="none" xmlns="http://www.w3.org/2000/svg">
<circle cx="4.58334" cy="34.25" r="0.916667" fill="#FF7A00" fill-opacity="0.5"/>
<circle cx="32.0833" cy="37.9167" r="0.916667" fill="#FF7A00" fill-opacity="0.5"/>
<circle cx="39.4167" cy="36.0833" r="0.916667" fill="#FF7A00" fill-opacity="0.5"/>
<circle cx="50.4167" cy="36.0833" r="0.916667" fill="#FF7A00" fill-opacity="0.5"/>
<circle cx="53.1667" cy="31.5" r="1.83333" fill="#FF7A00" fill-opacity="0.5"/>
<circle cx="20.1667" cy="38.8333" r="1.83333" fill="#FF7A00" fill-opacity="0.5"/>
<circle cx="36.6667" cy="38.8333" r="1.83333" fill="#FF7A00" fill-opacity="0.5"/>
<circle cx="45.8333" cy="37" r="1.83333" fill="#FF7A00" fill-opacity="0.5"/>
<circle cx="24.75" cy="37.9167" r="0.916667" fill="#FF7A00" fill-opacity="0.5"/>
<circle cx="17.4167" cy="36.0833" r="0.916667" fill="#FF7A00" fill-opacity="0.5"/>
<circle cx="11.9167" cy="36.0833" r="0.916667" fill="#FF7A00" fill-opacity="0.5"/>
<circle cx="7.33333" cy="37" r="1.83333" fill="#FF7A00" fill-opacity="0.5"/>
<path d="M4.04311 29.5002C3.78049 30.1731 3.65298 30.891 3.66784 31.6132C3.6827 32.3353 3.83964 33.0474 4.12971 33.7089C4.41979 34.3703 4.8373 34.9682 5.35842 35.4683C5.87955 35.9684 6.49407 36.361 7.16691 36.6236C7.83974 36.8862 8.55772 37.0137 9.27983 36.9988C10.002 36.984 10.7141 36.827 11.3755 36.537C12.037 36.2469 12.6348 35.8294 13.135 35.3082C13.6351 34.7871 14.0276 34.1726 14.2902 33.4998L9.16667 31.5L4.04311 29.5002Z" fill="#FFFF00"/>
<path d="M16.5 33.3333C16.5 34.0556 16.6423 34.7708 16.9187 35.4381C17.1951 36.1054 17.6002 36.7117 18.1109 37.2224C18.6216 37.7331 19.228 38.1383 19.8952 38.4147C20.5625 38.6911 21.2777 38.8333 22 38.8333C22.7223 38.8333 23.4375 38.6911 24.1048 38.4147C24.772 38.1383 25.3784 37.7331 25.8891 37.2224C26.3998 36.7117 26.8049 36.1054 27.0813 35.4381C27.3577 34.7708 27.5 34.0556 27.5 33.3333H22L16.5 33.3333Z" fill="#FFFF00"/>
<path d="M29.3875 34.1034C29.4886 34.8186 29.7296 35.5068 30.0968 36.1288C30.4639 36.7508 30.9499 37.2944 31.5271 37.7286C32.1043 38.1628 32.7613 38.4791 33.4608 38.6593C34.1602 38.8396 34.8883 38.8803 35.6034 38.7792C36.3186 38.678 37.0068 38.437 37.6288 38.0699C38.2508 37.7028 38.7945 37.2168 39.2286 36.6396C39.6628 36.0624 39.9791 35.4053 40.1593 34.7059C40.3396 34.0065 40.3803 33.2784 40.2792 32.5633L34.8333 33.3333L29.3875 34.1034Z" fill="#FFFF00"/>
<path d="M42.4558 33.2598C42.7106 34.0143 43.1263 34.7045 43.674 35.2827C44.2217 35.8608 44.8885 36.3131 45.6282 36.6083C46.3679 36.9035 47.1629 37.0345 47.9582 36.9923C48.7535 36.9501 49.5301 36.7356 50.2344 36.3638C50.9387 35.992 51.5539 35.4717 52.0373 34.8388C52.5208 34.2059 52.861 33.4755 53.0346 32.6983C53.2081 31.921 53.2107 31.1153 53.0423 30.3369C52.8739 29.5585 52.5384 28.8259 52.0591 28.1899L47.6667 31.5L42.4558 33.2598Z" fill="#FFFF00"/>
<g filter="url(#filter0_d)">
<ellipse cx="27.5" cy="24.1667" rx="27.5" ry="11" fill="#00FFFF"/>
</g>
<g filter="url(#filter1_i)">
<path d="M49.5 24.1667C49.5 17.8457 47.1821 11.7836 43.0563 7.31396C38.9305 2.84434 33.3348 0.333336 27.5 0.333336C21.6652 0.333335 16.0695 2.84434 11.9437 7.31396C7.81785 11.7836 5.5 17.8457 5.5 24.1667L27.5 24.1667H49.5Z" fill="#FF0000"/>
</g>
<path d="M49.5 24.1667C49.5 25.3705 48.931 26.5625 47.8253 27.6746C46.7197 28.7868 45.0992 29.7973 43.0563 30.6485C41.0135 31.4997 38.5882 32.1749 35.919 32.6356C33.2499 33.0962 30.3891 33.3333 27.5 33.3333C24.6109 33.3333 21.7501 33.0962 19.081 32.6356C16.4118 32.1749 13.9865 31.4997 11.9436 30.6485C9.90076 29.7973 8.28025 28.7868 7.17465 27.6746C6.06905 26.5625 5.5 25.3705 5.5 24.1667L27.5 24.1667H49.5Z" fill="url(#paint0_radial)"/>
<circle cx="27.5" cy="18.6667" r="5.5" fill="#00FA00"/>
<circle cx="30.25" cy="17.75" r="0.916667" fill="black"/>
<circle cx="25.6667" cy="16.8333" r="1.83333" fill="black"/>
<path d="M29.2603 21.0122C29.1245 21.4791 28.8087 21.8729 28.3826 22.1069C27.9564 22.341 27.4547 22.3962 26.9878 22.2603C26.5209 22.1245 26.1272 21.8087 25.8931 21.3826C25.659 20.9564 25.6038 20.4547 25.7397 19.9878L27.5 20.5L29.2603 21.0122Z" fill="black"/>
<path d="M26.9323 13.3712C26.9991 12.9618 26.8975 12.5853 26.8104 12.1931C26.7482 11.9131 26.6828 11.6084 26.5869 11.34C26.3966 10.8071 26.2252 10.3238 25.9573 9.85495C25.8311 9.63409 25.6132 9.47075 25.3885 9.35844C25.1862 9.25726 24.9325 8.98379 24.6979 8.98379C24.4005 8.98379 24.2779 9.02178 24.0479 9.22754C23.9743 9.29342 23.9071 9.35037 23.8358 9.42163C23.757 9.50044 23.752 9.63763 23.6417 9.6744" stroke="#00FA00" stroke-linecap="round" stroke-linejoin="round"/>
<path d="M30.954 14.3055C31.2718 13.2927 31.1568 12.1112 30.6494 11.1978C30.5474 11.0142 30.4645 10.7917 30.3131 10.6403C30.1853 10.5125 30.0051 10.381 29.8978 10.2341C29.6988 9.9618 29.3308 9.84638 29.0763 9.6428C28.9827 9.5679 28.9975 9.87967 28.9838 9.91814C28.9528 10.005 28.9191 10.2044 28.8416 10.2431" stroke="#00FA00" stroke-linecap="round" stroke-linejoin="round"/>
<path d="M27.5 24.1667L32.7308 27.3337L30.7328 32.458H24.2672L22.2692 27.3337L27.5 24.1667Z" fill="#00FA00"/>
<defs>
<filter id="filter0_d" x="0" y="13.1667" width="55" height="22.75" filterUnits="userSpaceOnUse" color-interpolation-filters="sRGB">
<feFlood flood-opacity="0" result="BackgroundImageFix"/>
<feColorMatrix in="SourceAlpha" type="matrix" values="0 0 0 0 0 0 0 0 0 0 0 0 0 0 0 0 0 0 127 0"/>
<feOffset dy="0.75"/>
<feColorMatrix type="matrix" values="0 0 0 0 0 0 0 0 0 0.620833 0 0 0 0 0.620833 0 0 0 1 0"/>
<feBlend mode="normal" in2="BackgroundImageFix" result="effect1_dropShadow"/>
<feBlend mode="normal" in="SourceGraphic" in2="effect1_dropShadow" result="shape"/>
</filter>
<filter id="filter1_i" x="5.5" y="0.333336" width="44" height="25.8333" filterUnits="userSpaceOnUse" color-interpolation-filters="sRGB">
<feFlood flood-opacity="0" result="BackgroundImageFix"/>
<feBlend mode="normal" in="SourceGraphic" in2="BackgroundImageFix" result="shape"/>
<feColorMatrix in="SourceAlpha" type="matrix" values="0 0 0 0 0 0 0 0 0 0 0 0 0 0 0 0 0 0 127 0" result="hardAlpha"/>
<feOffset dy="4"/>
<feGaussianBlur stdDeviation="1"/>
<feComposite in2="hardAlpha" operator="arithmetic" k2="-1" k3="1"/>
<feColorMatrix type="matrix" values="0 0 0 0 1 0 0 0 0 1 0 0 0 0 1 0 0 0 0.25 0"/>
<feBlend mode="normal" in2="shape" result="effect1_innerShadow"/>
</filter>
<radialGradient id="paint0_radial" cx="0" cy="0" r="1" gradientUnits="userSpaceOnUse" gradientTransform="translate(27.5 24.1667) rotate(90) scale(9.16667 22)">
<stop offset="0.940669" stop-color="#FF0000"/>
<stop offset="1" stop-color="#FFA7A7"/>
</radialGradient>
</defs>
</svg>
