<svg width="1" height="1" viewBox="0 0 1 1" fill="none" xmlns="http://www.w3.org/2000/svg">
<g id="Group 1">
<path id="Ellipse 1" d="M0.600002 0.499994C0.600002 0.555222 0.55523 0.599994 0.500002 0.599994C0.444773 0.599994 0.400002 0.555222 0.400002 0.499994C0.400002 0.444765 0.444773 0.399994 0.500002 0.399994C0.55523 0.399994 0.600002 0.444765 0.600002 0.499994Z" fill="url(#paint0_radial)"/>
<path id="Ellipse 7" d="M0.600002 0.700006C0.600002 0.755235 0.55523 0.800006 0.500002 0.800006C0.444773 0.800006 0.400002 0.755235 0.400002 0.700006C0.400002 0.644778 0.444773 0.600006 0.500002 0.600006C0.55523 0.600006 0.600002 0.644778 0.600002 0.700006Z" fill="url(#paint1_radial)"/>
<path id="Ellipse 8" d="M0.400001 0.499994C0.400001 0.555222 0.355229 0.599994 0.300001 0.599994C0.244772 0.599994 0.200001 0.555222 0.200001 0.499994C0.200001 0.444765 0.244772 0.399994 0.300001 0.399994C0.355229 0.399994 0.400001 0.444765 0.400001 0.499994Z" fill="url(#paint2_radial)"/>
<path id="Ellipse 9" d="M0.799998 0.499994C0.799998 0.555222 0.755227 0.599994 0.699998 0.599994C0.64477 0.599994 0.599998 0.555222 0.599998 0.499994C0.599998 0.444765 0.64477 0.399994 0.699998 0.399994C0.755227 0.399994 0.799998 0.444765 0.799998 0.499994Z" fill="url(#paint3_radial)"/>
<path id="Ellipse 10" d="M0.600002 0.1C0.600002 0.155228 0.55523 0.2 0.500002 0.2C0.444773 0.2 0.400002 0.155228 0.400002 0.1C0.400002 0.0447715 0.444773 0 0.500002 0C0.55523 0 0.600002 0.0447715 0.600002 0.1Z" fill="url(#paint4_radial)"/>
<path id="Ellipse 11" d="M0.600002 0.900003C0.600002 0.955232 0.55523 1 0.500002 1C0.444773 1 0.400002 0.955232 0.400002 0.900003C0.400002 0.844775 0.444773 0.800003 0.500002 0.800003C0.55523 0.800003 0.600002 0.844775 0.600002 0.900003Z" fill="url(#paint5_radial)"/>
<path id="Ellipse 12" d="M0.2 0.499994C0.2 0.555222 0.155228 0.599994 0.1 0.599994C0.0447715 0.599994 0 0.555222 0 0.499994C0 0.444765 0.0447715 0.399994 0.1 0.399994C0.155228 0.399994 0.2 0.444765 0.2 0.499994Z" fill="url(#paint6_radial)"/>
<path id="Ellipse 13" d="M0.999999 0.499994C0.999999 0.555222 0.955228 0.599994 0.899999 0.599994C0.844771 0.599994 0.799999 0.555222 0.799999 0.499994C0.799999 0.444765 0.844771 0.399994 0.899999 0.399994C0.955228 0.399994 0.999999 0.444765 0.999999 0.499994Z" fill="url(#paint7_radial)"/>
<path id="Ellipse 6" d="M0.600002 0.299997C0.600002 0.355225 0.55523 0.399997 0.500002 0.399997C0.444773 0.399997 0.400002 0.355225 0.400002 0.299997C0.400002 0.244768 0.444773 0.199997 0.500002 0.199997C0.55523 0.199997 0.600002 0.244768 0.600002 0.299997Z" fill="url(#paint8_radial)"/>
<path id="Ellipse 2" d="M0.799998 0.700006C0.799998 0.755235 0.755227 0.800006 0.699998 0.800006C0.64477 0.800006 0.599998 0.755235 0.599998 0.700006C0.599998 0.644778 0.64477 0.600006 0.699998 0.600006C0.755227 0.600006 0.799998 0.644778 0.799998 0.700006Z" fill="url(#paint9_radial)"/>
<path id="Ellipse 3" d="M0.400001 0.299997C0.400001 0.355225 0.355229 0.399997 0.300001 0.399997C0.244772 0.399997 0.200001 0.355225 0.200001 0.299997C0.200001 0.244768 0.244772 0.199997 0.300001 0.199997C0.355229 0.199997 0.400001 0.244768 0.400001 0.299997Z" fill="url(#paint10_radial)"/>
<path id="Ellipse 4" d="M0.400001 0.700006C0.400001 0.755235 0.355229 0.800006 0.300001 0.800006C0.244772 0.800006 0.200001 0.755235 0.200001 0.700006C0.200001 0.644778 0.244772 0.600006 0.300001 0.600006C0.355229 0.600006 0.400001 0.644778 0.400001 0.700006Z" fill="url(#paint11_radial)"/>
<path id="Ellipse 5" d="M0.799998 0.299997C0.799998 0.355225 0.755227 0.399997 0.699998 0.399997C0.64477 0.399997 0.599998 0.355225 0.599998 0.299997C0.599998 0.244768 0.64477 0.199997 0.699998 0.199997C0.755227 0.199997 0.799998 0.244768 0.799998 0.299997Z" fill="url(#paint12_radial)"/>
</g>
<defs>
<radialGradient id="paint0_radial" cx="0" cy="0" r="1" gradientUnits="userSpaceOnUse" gradientTransform="translate(0.500002 0.499994) rotate(90) scale(0.1)">
<stop stop-color="#FF0000"/>
<stop offset="0.140625" stop-color="#FFFF00"/>
<stop offset="0.3125" stop-color="#00FF00"/>
<stop offset="0.479167" stop-color="#00FFFF"/>
<stop offset="0.65625" stop-color="#0000FF"/>
<stop offset="0.817708" stop-color="#FF00FF"/>
<stop offset="1" stop-color="#FF0000"/>
</radialGradient>
<radialGradient id="paint1_radial" cx="0" cy="0" r="1" gradientUnits="userSpaceOnUse" gradientTransform="translate(0.500002 0.700006) rotate(90) scale(0.1)">
<stop stop-color="#FF0000"/>
<stop offset="0.140625" stop-color="#FFFF00"/>
<stop offset="0.3125" stop-color="#00FF00"/>
<stop offset="0.479167" stop-color="#00FFFF"/>
<stop offset="0.65625" stop-color="#0000FF"/>
<stop offset="0.817708" stop-color="#FF00FF"/>
<stop offset="1" stop-color="#FF0000"/>
</radialGradient>
<radialGradient id="paint2_radial" cx="0" cy="0" r="1" gradientUnits="userSpaceOnUse" gradientTransform="translate(0.300001 0.499994) rotate(90) scale(0.1)">
<stop stop-color="#FF0000"/>
<stop offset="0.140625" stop-color="#FFFF00"/>
<stop offset="0.3125" stop-color="#00FF00"/>
<stop offset="0.479167" stop-color="#00FFFF"/>
<stop offset="0.65625" stop-color="#0000FF"/>
<stop offset="0.817708" stop-color="#FF00FF"/>
<stop offset="1" stop-color="#FF0000"/>
</radialGradient>
<radialGradient id="paint3_radial" cx="0" cy="0" r="1" gradientUnits="userSpaceOnUse" gradientTransform="translate(0.699998 0.499994) rotate(90) scale(0.1)">
<stop stop-color="#FF0000"/>
<stop offset="0.140625" stop-color="#FFFF00"/>
<stop offset="0.3125" stop-color="#00FF00"/>
<stop offset="0.479167" stop-color="#00FFFF"/>
<stop offset="0.65625" stop-color="#0000FF"/>
<stop offset="0.817708" stop-color="#FF00FF"/>
<stop offset="1" stop-color="#FF0000"/>
</radialGradient>
<radialGradient id="paint4_radial" cx="0" cy="0" r="1" gradientUnits="userSpaceOnUse" gradientTransform="translate(0.500002 0.1) rotate(90) scale(0.1)">
<stop stop-color="#FF0000"/>
<stop offset="0.140625" stop-color="#FFFF00"/>
<stop offset="0.3125" stop-color="#00FF00"/>
<stop offset="0.479167" stop-color="#00FFFF"/>
<stop offset="0.65625" stop-color="#0000FF"/>
<stop offset="0.817708" stop-color="#FF00FF"/>
<stop offset="1" stop-color="#FF0000"/>
</radialGradient>
<radialGradient id="paint5_radial" cx="0" cy="0" r="1" gradientUnits="userSpaceOnUse" gradientTransform="translate(0.500002 0.900003) rotate(90) scale(0.1)">
<stop stop-color="#FF0000"/>
<stop offset="0.140625" stop-color="#FFFF00"/>
<stop offset="0.3125" stop-color="#00FF00"/>
<stop offset="0.479167" stop-color="#00FFFF"/>
<stop offset="0.65625" stop-color="#0000FF"/>
<stop offset="0.817708" stop-color="#FF00FF"/>
<stop offset="1" stop-color="#FF0000"/>
</radialGradient>
<radialGradient id="paint6_radial" cx="0" cy="0" r="1" gradientUnits="userSpaceOnUse" gradientTransform="translate(0.1 0.499994) rotate(90) scale(0.1)">
<stop stop-color="#FF0000"/>
<stop offset="0.140625" stop-color="#FFFF00"/>
<stop offset="0.3125" stop-color="#00FF00"/>
<stop offset="0.479167" stop-color="#00FFFF"/>
<stop offset="0.65625" stop-color="#0000FF"/>
<stop offset="0.817708" stop-color="#FF00FF"/>
<stop offset="1" stop-color="#FF0000"/>
</radialGradient>
<radialGradient id="paint7_radial" cx="0" cy="0" r="1" gradientUnits="userSpaceOnUse" gradientTransform="translate(0.899999 0.499994) rotate(90) scale(0.1)">
<stop stop-color="#FF0000"/>
<stop offset="0.140625" stop-color="#FFFF00"/>
<stop offset="0.3125" stop-color="#00FF00"/>
<stop offset="0.479167" stop-color="#00FFFF"/>
<stop offset="0.65625" stop-color="#0000FF"/>
<stop offset="0.817708" stop-color="#FF00FF"/>
<stop offset="1" stop-color="#FF0000"/>
</radialGradient>
<radialGradient id="paint8_radial" cx="0" cy="0" r="1" gradientUnits="userSpaceOnUse" gradientTransform="translate(0.500002 0.299997) rotate(90) scale(0.1)">
<stop stop-color="#FF0000"/>
<stop offset="0.140625" stop-color="#FFFF00"/>
<stop offset="0.3125" stop-color="#00FF00"/>
<stop offset="0.479167" stop-color="#00FFFF"/>
<stop offset="0.65625" stop-color="#0000FF"/>
<stop offset="0.817708" stop-color="#FF00FF"/>
<stop offset="1" stop-color="#FF0000"/>
</radialGradient>
<radialGradient id="paint9_radial" cx="0" cy="0" r="1" gradientUnits="userSpaceOnUse" gradientTransform="translate(0.699998 0.700006) rotate(90) scale(0.1)">
<stop stop-color="#FF0000"/>
<stop offset="0.140625" stop-color="#FFFF00"/>
<stop offset="0.3125" stop-color="#00FF00"/>
<stop offset="0.479167" stop-color="#00FFFF"/>
<stop offset="0.65625" stop-color="#0000FF"/>
<stop offset="0.817708" stop-color="#FF00FF"/>
<stop offset="1" stop-color="#FF0000"/>
</radialGradient>
<radialGradient id="paint10_radial" cx="0" cy="0" r="1" gradientUnits="userSpaceOnUse" gradientTransform="translate(0.300001 0.299997) rotate(90) scale(0.1)">
<stop stop-color="#FF0000"/>
<stop offset="0.140625" stop-color="#FFFF00"/>
<stop offset="0.3125" stop-color="#00FF00"/>
<stop offset="0.479167" stop-color="#00FFFF"/>
<stop offset="0.65625" stop-color="#0000FF"/>
<stop offset="0.817708" stop-color="#FF00FF"/>
<stop offset="1" stop-color="#FF0000"/>
</radialGradient>
<radialGradient id="paint11_radial" cx="0" cy="0" r="1" gradientUnits="userSpaceOnUse" gradientTransform="translate(0.300001 0.700006) rotate(90) scale(0.1)">
<stop stop-color="#FF0000"/>
<stop offset="0.140625" stop-color="#FFFF00"/>
<stop offset="0.3125" stop-color="#00FF00"/>
<stop offset="0.479167" stop-color="#00FFFF"/>
<stop offset="0.65625" stop-color="#0000FF"/>
<stop offset="0.817708" stop-color="#FF00FF"/>
<stop offset="1" stop-color="#FF0000"/>
</radialGradient>
<radialGradient id="paint12_radial" cx="0" cy="0" r="1" gradientUnits="userSpaceOnUse" gradientTransform="translate(0.699998 0.299997) rotate(90) scale(0.1)">
<stop stop-color="#FF0000"/>
<stop offset="0.140625" stop-color="#FFFF00"/>
<stop offset="0.3125" stop-color="#00FF00"/>
<stop offset="0.479167" stop-color="#00FFFF"/>
<stop offset="0.65625" stop-color="#0000FF"/>
<stop offset="0.817708" stop-color="#FF00FF"/>
<stop offset="1" stop-color="#FF0000"/>
</radialGradient>
</defs>
</svg>
