<svg width="1440" height="1024" viewBox="0 0 1440 1024" fill="none" xmlns="http://www.w3.org/2000/svg">
<g clip-path="url(#clip0)">
<rect width="1440" height="1024" fill="black"/>
<path d="M709.952 363L710.902 367.206L714.548 364.904L712.246 368.55L716.452 369.5L712.246 370.45L714.548 374.096L710.902 371.794L709.952 376L709.002 371.794L705.356 374.096L707.658 370.45L703.452 369.5L707.658 368.55L705.356 364.904L709.002 367.206L709.952 363Z" fill="white"/>
<path d="M47.9518 71L50.0713 80.3831L58.2048 75.247L53.0687 83.3805L62.4518 85.5L53.0687 87.6195L58.2048 95.753L50.0713 90.6169L47.9518 100L45.8323 90.6169L37.6987 95.753L42.8349 87.6195L33.4518 85.5L42.8349 83.3805L37.6987 75.247L45.8323 80.3831L47.9518 71Z" fill="white"/>
<path d="M102.952 87L103.902 91.2062L107.548 88.9038L105.246 92.5499L109.452 93.5L105.246 94.4501L107.548 98.0962L103.902 95.7938L102.952 100L102.002 95.7938L98.3556 98.0962L100.658 94.4501L96.4518 93.5L100.658 92.5499L98.3556 88.9038L102.002 91.2062L102.952 87Z" fill="white"/>
<path d="M53.9518 282L54.9019 286.206L58.548 283.904L56.2456 287.55L60.4518 288.5L56.2456 289.45L58.548 293.096L54.9019 290.794L53.9518 295L53.0017 290.794L49.3556 293.096L51.658 289.45L47.4518 288.5L51.658 287.55L49.3556 283.904L53.0017 286.206L53.9518 282Z" fill="white"/>
<path d="M89.9518 160L90.9019 164.206L94.548 161.904L92.2456 165.55L96.4518 166.5L92.2456 167.45L94.548 171.096L90.9019 168.794L89.9518 173L89.0017 168.794L85.3556 171.096L87.658 167.45L83.4518 166.5L87.658 165.55L85.3556 161.904L89.0017 164.206L89.9518 160Z" fill="white"/>
<path d="M357.952 276L358.902 280.206L362.548 277.904L360.246 281.55L364.452 282.5L360.246 283.45L362.548 287.096L358.902 284.794L357.952 289L357.002 284.794L353.356 287.096L355.658 283.45L351.452 282.5L355.658 281.55L353.356 277.904L357.002 280.206L357.952 276Z" fill="white"/>
<path d="M430.952 412L431.902 416.206L435.548 413.904L433.246 417.55L437.452 418.5L433.246 419.45L435.548 423.096L431.902 420.794L430.952 425L430.002 420.794L426.356 423.096L428.658 419.45L424.452 418.5L428.658 417.55L426.356 413.904L430.002 416.206L430.952 412Z" fill="white"/>
<path d="M493.952 147L494.902 151.206L498.548 148.904L496.246 152.55L500.452 153.5L496.246 154.45L498.548 158.096L494.902 155.794L493.952 160L493.002 155.794L489.356 158.096L491.658 154.45L487.452 153.5L491.658 152.55L489.356 148.904L493.002 151.206L493.952 147Z" fill="white"/>
<path d="M196.952 376L197.902 380.206L201.548 377.904L199.246 381.55L203.452 382.5L199.246 383.45L201.548 387.096L197.902 384.794L196.952 389L196.002 384.794L192.356 387.096L194.658 383.45L190.452 382.5L194.658 381.55L192.356 377.904L196.002 380.206L196.952 376Z" fill="white"/>
<path d="M242.952 242L245.071 251.383L253.205 246.247L248.069 254.381L257.452 256.5L248.069 258.62L253.205 266.753L245.071 261.617L242.952 271L240.832 261.617L232.699 266.753L237.835 258.62L228.452 256.5L237.835 254.381L232.699 246.247L240.832 251.383L242.952 242Z" fill="white"/>
<path d="M378.952 127L381.071 136.383L389.205 131.247L384.069 139.381L393.452 141.5L384.069 143.619L389.205 151.753L381.071 146.617L378.952 156L376.832 146.617L368.699 151.753L373.835 143.619L364.452 141.5L373.835 139.381L368.699 131.247L376.832 136.383L378.952 127Z" fill="white"/>
<path d="M770.952 201L771.902 205.206L775.548 202.904L773.246 206.55L777.452 207.5L773.246 208.45L775.548 212.096L771.902 209.794L770.952 214L770.002 209.794L766.356 212.096L768.658 208.45L764.452 207.5L768.658 206.55L766.356 202.904L770.002 205.206L770.952 201Z" fill="white"/>
<path d="M770.952 201L771.902 205.206L775.548 202.904L773.246 206.55L777.452 207.5L773.246 208.45L775.548 212.096L771.902 209.794L770.952 214L770.002 209.794L766.356 212.096L768.658 208.45L764.452 207.5L768.658 206.55L766.356 202.904L770.002 205.206L770.952 201Z" fill="white"/>
<path d="M62.9518 133L63.3172 134.618L64.7196 133.732L63.834 135.135L65.4518 135.5L63.834 135.865L64.7196 137.268L63.3172 136.382L62.9518 138L62.5864 136.382L61.184 137.268L62.0696 135.865L60.4518 135.5L62.0696 135.135L61.184 133.732L62.5864 134.618L62.9518 133Z" fill="white"/>
<path d="M219.952 131L220.317 132.618L221.72 131.732L220.834 133.135L222.452 133.5L220.834 133.865L221.72 135.268L220.317 134.382L219.952 136L219.586 134.382L218.184 135.268L219.07 133.865L217.452 133.5L219.07 133.135L218.184 131.732L219.586 132.618L219.952 131Z" fill="white"/>
<path d="M192.952 151L193.317 152.618L194.72 151.732L193.834 153.135L195.452 153.5L193.834 153.865L194.72 155.268L193.317 154.382L192.952 156L192.586 154.382L191.184 155.268L192.07 153.865L190.452 153.5L192.07 153.135L191.184 151.732L192.586 152.618L192.952 151Z" fill="white"/>
<path d="M171.952 112L172.317 113.618L173.72 112.732L172.834 114.135L174.452 114.5L172.834 114.865L173.72 116.268L172.317 115.382L171.952 117L171.586 115.382L170.184 116.268L171.07 114.865L169.452 114.5L171.07 114.135L170.184 112.732L171.586 113.618L171.952 112Z" fill="white"/>
<path d="M83.9518 114L84.3172 115.618L85.7196 114.732L84.834 116.135L86.4518 116.5L84.834 116.865L85.7196 118.268L84.3172 117.382L83.9518 119L83.5864 117.382L82.184 118.268L83.0696 116.865L81.4518 116.5L83.0696 116.135L82.184 114.732L83.5864 115.618L83.9518 114Z" fill="white"/>
<path d="M378.647 554.585L372.607 547.098L367.571 555.295L368.595 545.73L359.239 547.965L366.726 541.925L358.53 536.889L368.094 537.913L365.86 528.557L371.899 536.044L376.935 527.848L375.911 537.413L385.267 535.178L377.78 541.217L385.976 546.253L376.412 545.229L378.647 554.585Z" fill="white"/>
<path d="M322.227 564.476L319.519 561.12L317.262 564.794L317.721 560.506L313.527 561.508L316.883 558.801L313.209 556.543L317.497 557.002L316.495 552.808L319.202 556.164L321.459 552.49L321.001 556.778L325.195 555.776L321.839 558.483L325.513 560.741L321.225 560.282L322.227 564.476Z" fill="white"/>
<path d="M280.225 367.85L277.517 364.494L275.26 368.168L275.719 363.88L271.525 364.882L274.881 362.174L271.207 359.917L275.495 360.376L274.493 356.182L277.2 359.538L279.457 355.864L278.999 360.152L283.193 359.15L279.837 361.857L283.511 364.115L279.223 363.656L280.225 367.85Z" fill="white"/>
<path d="M301.707 493.223L299 489.867L296.742 493.541L297.201 489.254L293.007 490.255L296.363 487.548L292.689 485.291L296.977 485.75L295.975 481.555L298.682 484.912L300.94 481.237L300.481 485.525L304.675 484.523L301.319 487.231L304.993 489.488L300.705 489.029L301.707 493.223Z" fill="white"/>
<path d="M28.0179 490.534L25.3105 487.178L23.0532 490.852L23.512 486.564L19.3179 487.566L22.6742 484.859L19 482.601L23.2877 483.06L22.2858 478.866L24.9932 482.222L27.2505 478.548L26.7917 482.836L30.9859 481.834L27.6296 484.541L31.3038 486.799L27.016 486.34L28.0179 490.534Z" fill="white"/>
<path d="M110.429 346.534L107.722 343.178L105.464 346.852L105.923 342.564L101.729 343.566L105.085 340.859L101.411 338.601L105.699 339.06L104.697 334.866L107.404 338.222L109.662 334.548L109.203 338.836L113.397 337.834L110.041 340.541L113.715 342.799L109.427 342.34L110.429 346.534Z" fill="white"/>
<path d="M711.502 760.549L709.949 756.526L706.677 759.336L708.424 755.393L704.124 755.066L708.146 753.513L705.337 750.242L709.28 751.988L709.606 747.688L711.16 751.711L714.431 748.901L712.685 752.844L716.985 753.17L712.962 754.724L715.772 757.995L711.829 756.249L711.502 760.549Z" fill="white"/>
<path d="M1409.01 952.89L1405.54 943.917L1398.24 950.184L1402.14 941.388L1392.55 940.66L1401.52 937.195L1395.25 929.897L1404.05 933.792L1404.78 924.2L1408.24 933.174L1415.54 926.907L1411.65 935.702L1421.24 936.431L1412.26 939.896L1418.53 947.194L1409.74 943.298L1409.01 952.89Z" fill="white"/>
<path d="M1352.26 945.082L1350.71 941.059L1347.44 943.869L1349.18 939.926L1344.88 939.599L1348.91 938.046L1346.1 934.774L1350.04 936.521L1350.37 932.221L1351.92 936.243L1355.19 933.434L1353.44 937.377L1357.74 937.703L1353.72 939.257L1356.53 942.528L1352.59 940.782L1352.26 945.082Z" fill="white"/>
<path d="M1372.3 745.021L1370.75 740.998L1367.48 743.808L1369.22 739.865L1364.92 739.538L1368.95 737.985L1366.14 734.714L1370.08 736.46L1370.41 732.16L1371.96 736.182L1375.23 733.373L1373.48 737.316L1377.78 737.642L1373.76 739.196L1376.57 742.467L1372.63 740.721L1372.3 745.021Z" fill="white"/>
<path d="M1354.48 870.966L1352.92 866.944L1349.65 869.753L1351.4 865.81L1347.1 865.484L1351.12 863.93L1348.31 860.659L1352.25 862.405L1352.58 858.105L1354.13 862.128L1357.41 859.319L1355.66 863.261L1359.96 863.588L1355.94 865.141L1358.75 868.413L1354.8 866.667L1354.48 870.966Z" fill="white"/>
<path d="M1072.43 795.288L1070.87 791.265L1067.6 794.075L1069.35 790.132L1065.05 789.805L1069.07 788.252L1066.26 784.981L1070.2 786.727L1070.53 782.427L1072.08 786.45L1075.36 783.64L1073.61 787.583L1077.91 787.91L1073.89 789.463L1076.7 792.734L1072.75 790.988L1072.43 795.288Z" fill="white"/>
<path d="M980.374 671.387L978.821 667.364L975.549 670.174L977.296 666.231L972.996 665.904L977.018 664.351L974.209 661.08L978.152 662.826L978.478 658.526L980.032 662.549L983.303 659.739L981.557 663.682L985.857 664.009L981.834 665.562L984.644 668.833L980.701 667.087L980.374 671.387Z" fill="white"/>
<path d="M956.692 942.741L955.138 938.719L951.867 941.528L953.613 937.585L949.313 937.259L953.336 935.705L950.526 932.434L954.469 934.18L954.796 929.88L956.349 933.903L959.621 931.094L957.875 935.036L962.174 935.363L958.152 936.916L960.961 940.188L957.018 938.442L956.692 942.741Z" fill="white"/>
<path d="M1217.12 672.879L1215.57 668.856L1212.3 671.666L1214.04 667.723L1209.74 667.396L1213.77 665.843L1210.96 662.572L1214.9 664.318L1215.23 660.018L1216.78 664.041L1220.05 661.231L1218.31 665.174L1222.61 665.5L1218.58 667.054L1221.39 670.325L1217.45 668.579L1217.12 672.879Z" fill="white"/>
<path d="M1191.16 812.154L1187.69 803.181L1180.39 809.448L1184.29 800.652L1174.7 799.924L1183.67 796.459L1177.4 789.161L1186.2 793.056L1186.93 783.464L1190.39 792.438L1197.69 786.171L1193.79 794.966L1203.39 795.695L1194.41 799.16L1200.68 806.458L1191.88 802.563L1191.16 812.154Z" fill="white"/>
<path d="M1073.38 945.758L1069.91 936.784L1062.62 943.051L1066.51 934.256L1056.92 933.527L1065.89 930.062L1059.63 922.764L1068.42 926.659L1069.15 917.068L1072.61 926.041L1079.91 919.774L1076.02 928.57L1085.61 929.298L1076.64 932.763L1082.9 940.061L1074.11 936.166L1073.38 945.758Z" fill="white"/>
<path d="M674.778 929.713L673.225 925.69L669.953 928.499L671.699 924.557L667.4 924.23L671.422 922.677L668.613 919.405L672.556 921.151L672.882 916.852L674.436 920.874L677.707 918.065L675.961 922.008L680.261 922.334L676.238 923.888L679.047 927.159L675.105 925.413L674.778 929.713Z" fill="white"/>
<path d="M674.778 929.713L673.225 925.69L669.953 928.499L671.699 924.557L667.4 924.23L671.422 922.677L668.613 919.405L672.556 921.151L672.882 916.852L674.436 920.874L677.707 918.065L675.961 922.008L680.261 922.334L676.238 923.888L679.047 927.159L675.105 925.413L674.778 929.713Z" fill="white"/>
<path d="M1385.13 893.741L1384.53 892.193L1383.27 893.274L1383.94 891.757L1382.29 891.632L1383.84 891.034L1382.75 889.776L1384.27 890.448L1384.4 888.794L1384.99 890.341L1386.25 889.261L1385.58 890.777L1387.23 890.903L1385.69 891.5L1386.77 892.758L1385.25 892.087L1385.13 893.741Z" fill="white"/>
<path d="M1230.1 918.614L1229.5 917.067L1228.24 918.147L1228.91 916.631L1227.26 916.505L1228.81 915.908L1227.72 914.65L1229.24 915.321L1229.37 913.667L1229.96 915.215L1231.22 914.134L1230.55 915.65L1232.2 915.776L1230.66 916.373L1231.74 917.632L1230.22 916.96L1230.1 918.614Z" fill="white"/>
<path d="M1253.89 894.89L1253.29 893.343L1252.04 894.424L1252.71 892.907L1251.05 892.782L1252.6 892.184L1251.52 890.926L1253.04 891.598L1253.16 889.944L1253.76 891.491L1255.02 890.41L1254.35 891.927L1256 892.053L1254.45 892.65L1255.53 893.908L1254.02 893.237L1253.89 894.89Z" fill="white"/>
<path d="M1280.35 930.411L1279.76 928.864L1278.5 929.945L1279.17 928.428L1277.52 928.302L1279.06 927.705L1277.98 926.447L1279.5 927.118L1279.62 925.465L1280.22 927.012L1281.48 925.931L1280.81 927.448L1282.46 927.573L1280.91 928.171L1282 929.429L1280.48 928.757L1280.35 930.411Z" fill="white"/>
<path d="M1367.12 915.6L1366.52 914.053L1365.27 915.133L1365.94 913.617L1364.28 913.491L1365.83 912.894L1364.75 911.635L1366.27 912.307L1366.39 910.653L1366.99 912.2L1368.25 911.12L1367.58 912.636L1369.23 912.762L1367.68 913.359L1368.76 914.618L1367.25 913.946L1367.12 915.6Z" fill="white"/>
<path d="M1011.33 522.698L1018.39 529.225L1022.18 520.382L1022.56 529.994L1031.49 526.418L1024.97 533.485L1033.81 537.272L1024.2 537.654L1027.77 546.584L1020.71 540.058L1016.92 548.901L1016.54 539.289L1007.61 542.864L1014.13 535.797L1005.29 532.011L1014.9 531.629L1011.33 522.698Z" fill="white"/>
<path d="M1065.7 504.686L1068.87 507.612L1070.57 503.648L1070.74 507.956L1074.74 506.354L1071.82 509.522L1075.78 511.219L1071.47 511.39L1073.07 515.394L1069.91 512.468L1068.21 516.432L1068.04 512.123L1064.03 513.726L1066.96 510.558L1063 508.861L1067.3 508.689L1065.7 504.686Z" fill="white"/>
<path d="M1135.93 693.085L1139.1 696.011L1140.79 692.047L1140.96 696.356L1144.97 694.753L1142.04 697.921L1146.01 699.618L1141.7 699.79L1143.3 703.793L1140.13 700.867L1138.44 704.831L1138.26 700.522L1134.26 702.125L1137.19 698.957L1133.22 697.26L1137.53 697.089L1135.93 693.085Z" fill="white"/>
<path d="M1096.39 572.185L1099.56 575.11L1101.26 571.146L1101.43 575.455L1105.43 573.852L1102.51 577.02L1106.47 578.717L1102.16 578.889L1103.77 582.892L1100.6 579.966L1098.9 583.931L1098.73 579.622L1094.73 581.225L1097.65 578.057L1093.69 576.359L1098 576.188L1096.39 572.185Z" fill="white"/>
<path d="M1367.55 534.934L1370.72 537.86L1372.41 533.896L1372.59 538.204L1376.59 536.602L1373.66 539.77L1377.63 541.467L1373.32 541.638L1374.92 545.642L1371.75 542.716L1370.06 546.68L1369.88 542.371L1365.88 543.974L1368.81 540.806L1364.84 539.109L1369.15 538.937L1367.55 534.934Z" fill="white"/>
<path d="M1307.02 689.413L1310.19 692.338L1311.88 688.374L1312.05 692.683L1316.06 691.08L1313.13 694.248L1317.1 695.945L1312.79 696.117L1314.39 700.12L1311.22 697.194L1309.52 701.158L1309.35 696.85L1305.35 698.452L1308.28 695.284L1304.31 693.587L1308.62 693.416L1307.02 689.413Z" fill="white"/>
<path d="M128.227 487.087L122.187 479.6L117.152 487.796L118.175 478.232L108.819 480.467L116.306 474.427L108.11 469.391L117.675 470.415L115.44 461.059L121.479 468.546L126.515 460.35L125.491 469.914L134.848 467.68L127.36 473.719L135.557 478.755L125.992 477.731L128.227 487.087Z" fill="white"/>
<path d="M327.375 531.865L326.334 530.574L325.466 531.987L325.642 530.338L324.029 530.723L325.32 529.682L323.907 528.814L325.556 528.99L325.17 527.377L326.212 528.668L327.08 527.255L326.903 528.904L328.517 528.518L327.226 529.56L328.639 530.428L326.99 530.252L327.375 531.865Z" fill="white"/>
<path d="M499.839 398.547L504.151 398.516L502.679 394.463L505.75 397.49L507.576 393.584L507.607 397.896L511.66 396.424L508.633 399.495L512.539 401.321L508.227 401.352L509.699 405.405L506.628 402.378L504.802 406.284L504.771 401.972L500.718 403.444L503.745 400.373L499.839 398.547Z" fill="white"/>
<path d="M679.895 488.022L684.207 487.991L682.736 483.938L685.806 486.965L687.632 483.058L687.663 487.37L691.716 485.899L688.689 488.97L692.596 490.795L688.284 490.826L689.755 494.88L686.684 491.852L684.859 495.759L684.828 491.447L680.774 492.918L683.802 489.847L679.895 488.022Z" fill="white"/>
<path d="M568.384 426.822L572.696 426.791L571.225 422.738L574.296 425.765L576.121 421.859L576.152 426.171L580.206 424.699L577.178 427.77L581.085 429.596L576.773 429.627L578.245 433.68L575.174 430.653L573.348 434.559L573.317 430.247L569.264 431.719L572.291 428.648L568.384 426.822Z" fill="white"/>
<path d="M738.891 189.741L743.203 189.71L741.731 185.657L744.802 188.684L746.628 184.777L746.659 189.089L750.712 187.618L747.685 190.689L751.591 192.514L747.279 192.545L748.751 196.599L745.68 193.571L743.854 197.478L743.823 193.166L739.77 194.637L742.797 191.567L738.891 189.741Z" fill="white"/>
<path d="M887.334 147.437L891.646 147.406L890.174 143.353L893.245 146.38L895.071 142.473L895.102 146.785L899.155 145.314L896.128 148.385L900.035 150.21L895.722 150.241L897.194 154.295L894.123 151.267L892.297 155.174L892.267 150.862L888.213 152.333L891.241 149.263L887.334 147.437Z" fill="white"/>
<path d="M632.839 110.35L637.151 110.319L635.679 106.266L638.75 109.293L640.576 105.387L640.607 109.699L644.66 108.227L641.633 111.298L645.539 113.124L641.227 113.155L642.699 117.208L639.628 114.181L637.802 118.087L637.771 113.775L633.718 115.247L636.745 112.176L632.839 110.35Z" fill="white"/>
<path d="M802.239 368.369L806.552 368.338L805.08 364.285L808.151 367.312L809.977 363.405L810.007 367.717L814.061 366.246L811.033 369.317L814.94 371.142L810.628 371.173L812.1 375.227L809.029 372.199L807.203 376.106L807.172 371.794L803.119 373.265L806.146 370.194L802.239 368.369Z" fill="white"/>
<path d="M532.545 281.166L542.165 281.097L538.882 272.055L545.732 278.808L549.805 270.094L549.874 279.713L558.916 276.43L552.163 283.281L560.878 287.353L551.258 287.422L554.541 296.464L547.691 289.711L543.618 298.426L543.549 288.807L534.507 292.089L541.26 285.239L532.545 281.166Z" fill="white"/>
<path d="M536.246 447.44L537.904 447.428L537.338 445.869L538.519 447.034L539.221 445.531L539.233 447.19L540.792 446.624L539.628 447.805L541.13 448.507L539.472 448.519L540.038 450.078L538.857 448.913L538.155 450.416L538.143 448.758L536.584 449.324L537.748 448.142L536.246 447.44Z" fill="white"/>
<path d="M503.985 247.442L505.644 247.431L505.078 245.872L506.259 247.036L506.961 245.533L506.973 247.192L508.532 246.626L507.367 247.807L508.87 248.509L507.212 248.521L507.778 250.08L506.596 248.916L505.894 250.418L505.882 248.76L504.323 249.326L505.488 248.145L503.985 247.442Z" fill="white"/>
<path d="M594.985 255.442L596.644 255.431L596.078 253.872L597.259 255.036L597.961 253.533L597.973 255.192L599.532 254.626L598.367 255.807L599.87 256.509L598.212 256.521L598.778 258.08L597.596 256.916L596.894 258.418L596.882 256.76L595.323 257.326L596.488 256.145L594.985 255.442Z" fill="white"/>
<path d="M390.985 354.442L392.644 354.431L392.078 352.872L393.259 354.036L393.961 352.533L393.973 354.192L395.532 353.626L394.367 354.807L395.87 355.509L394.212 355.521L394.778 357.08L393.596 355.916L392.894 357.418L392.882 355.76L391.323 356.326L392.488 355.145L390.985 354.442Z" fill="white"/>
<path d="M522.163 422.87L523.822 422.858L523.256 421.299L524.437 422.464L525.139 420.961L525.151 422.62L526.71 422.054L525.546 423.235L527.048 423.937L525.39 423.949L525.956 425.508L524.775 424.343L524.072 425.846L524.061 424.188L522.502 424.753L523.666 423.572L522.163 422.87Z" fill="white"/>
<path d="M1007.8 235.49L1001.88 238.456L1006.65 243.052L1000.36 240.956L1000.49 247.585L997.527 241.655L992.931 246.434L995.027 240.144L988.398 240.273L994.328 237.307L989.549 232.711L995.839 234.807L995.71 228.178L998.676 234.108L1003.27 229.329L1001.18 235.619L1007.8 235.49Z" fill="white"/>
<path d="M1013.1 286.189L1009.25 288.118L1012.35 291.107L1008.26 289.744L1008.35 294.056L1006.42 290.199L1003.43 293.307L1004.79 289.216L1000.48 289.3L1004.34 287.371L1001.23 284.382L1005.32 285.745L1005.24 281.433L1007.17 285.29L1010.15 282.182L1008.79 286.273L1013.1 286.189Z" fill="white"/>
<path d="M812.043 285.274L808.186 287.203L811.294 290.193L807.203 288.829L807.287 293.141L805.358 289.284L802.369 292.392L803.732 288.301L799.421 288.385L803.277 286.456L800.169 283.467L804.26 284.83L804.176 280.518L806.105 284.375L809.095 281.267L807.732 285.358L812.043 285.274Z" fill="white"/>
<path d="M939.113 291.035L935.256 292.964L938.364 295.953L934.273 294.59L934.357 298.901L932.428 295.045L929.439 298.153L930.802 294.062L926.491 294.146L930.347 292.217L927.239 289.227L931.331 290.59L931.247 286.279L933.176 290.136L936.165 287.028L934.802 291.119L939.113 291.035Z" fill="white"/>
<path d="M878.095 557.849L874.238 559.778L877.346 562.767L873.255 561.404L873.339 565.715L871.41 561.859L868.421 564.967L869.784 560.876L865.473 560.96L869.329 559.031L866.221 556.041L870.312 557.404L870.228 553.093L872.157 556.95L875.147 553.842L873.784 557.933L878.095 557.849Z" fill="white"/>
<path d="M754.992 446.613L751.136 448.542L754.244 451.531L750.153 450.168L750.237 454.48L748.308 450.623L745.318 453.731L746.682 449.64L742.37 449.724L746.227 447.795L743.119 444.806L747.21 446.169L747.126 441.857L749.055 445.714L752.044 442.606L750.681 446.697L754.992 446.613Z" fill="white"/>
<path d="M896.107 459.212L887.504 463.515L894.437 470.183L885.31 467.143L885.498 476.76L881.195 468.157L874.526 475.09L877.567 465.964L867.949 466.151L876.553 461.848L869.619 455.18L878.746 458.22L878.558 448.603L882.862 457.206L889.53 450.273L886.489 459.399L896.107 459.212Z" fill="white"/>
<path d="M982.341 274.202L980.858 274.944L982.053 276.093L980.48 275.569L980.512 277.227L979.77 275.744L978.62 276.939L979.144 275.366L977.486 275.398L978.97 274.656L977.774 273.507L979.348 274.031L979.315 272.373L980.057 273.856L981.207 272.661L980.683 274.234L982.341 274.202Z" fill="white"/>
<path d="M257.095 552.121L254.989 555.883L259.239 556.61L255.089 557.781L257.58 561.301L253.818 559.194L253.091 563.444L251.92 559.294L248.401 561.786L250.508 558.023L246.257 557.296L250.407 556.125L247.916 552.606L251.678 554.713L252.405 550.462L253.576 554.613L257.095 552.121Z" fill="white"/>
<path d="M410.792 472.482L408.685 476.245L412.936 476.971L408.785 478.142L411.277 481.662L407.515 479.555L406.788 483.805L405.617 479.655L402.097 482.147L404.204 478.384L399.954 477.657L404.104 476.487L401.612 472.967L405.375 475.074L406.102 470.824L407.272 474.974L410.792 472.482Z" fill="white"/>
<path d="M77.1158 438.022L80.3422 440.883L81.9591 436.886L82.2175 441.19L86.1875 439.507L83.3265 442.733L87.3241 444.35L83.0196 444.608L84.703 448.578L81.4766 445.717L79.8596 449.715L79.6013 445.41L75.6312 447.094L78.4923 443.867L74.4947 442.25L78.7991 441.992L77.1158 438.022Z" fill="white"/>
<path d="M151.134 624.964L154.361 627.825L155.977 623.828L156.236 628.132L160.206 626.449L157.345 629.675L161.342 631.292L157.038 631.55L158.721 635.52L155.495 632.659L153.878 636.657L153.62 632.352L149.65 634.036L152.511 630.809L148.513 629.192L152.818 628.934L151.134 624.964Z" fill="white"/>
<path d="M109.164 504.887L112.391 507.748L114.008 503.75L114.266 508.055L118.236 506.371L115.375 509.598L119.373 511.215L115.068 511.473L116.751 515.443L113.525 512.582L111.908 516.58L111.65 512.275L107.68 513.959L110.541 510.732L106.543 509.115L110.848 508.857L109.164 504.887Z" fill="white"/>
<path d="M322.114 617.835L325.341 620.696L326.958 616.699L327.216 621.003L331.186 619.32L328.325 622.546L332.323 624.163L328.018 624.422L329.701 628.392L326.475 625.531L324.858 629.528L324.6 625.224L320.63 626.907L323.491 623.681L319.493 622.064L323.798 621.805L322.114 617.835Z" fill="white"/>
<path d="M71.4818 498.72L72.7228 499.821L73.3447 498.283L73.444 499.939L74.971 499.291L73.8706 500.532L75.4081 501.154L73.7525 501.253L74.4 502.78L73.1591 501.68L72.5372 503.217L72.4378 501.562L70.9109 502.209L72.0113 500.968L70.4737 500.346L72.1293 500.247L71.4818 498.72Z" fill="white"/>
<path d="M181.259 328.459L182.5 329.559L183.122 328.022L183.221 329.677L184.748 329.03L183.648 330.271L185.185 330.893L183.53 330.992L184.177 332.519L182.936 331.419L182.314 332.956L182.215 331.301L180.688 331.948L181.788 330.707L180.251 330.085L181.906 329.986L181.259 328.459Z" fill="white"/>
<path d="M243.561 395.268L244.802 396.369L245.424 394.831L245.523 396.487L247.05 395.839L245.95 397.08L247.487 397.702L245.832 397.801L246.479 399.328L245.238 398.228L244.616 399.765L244.517 398.11L242.99 398.757L244.09 397.516L242.553 396.895L244.208 396.795L243.561 395.268Z" fill="white"/>
<path d="M77.4454 471.036L78.6863 472.136L79.3082 470.598L79.4075 472.254L80.9345 471.607L79.8341 472.848L81.3716 473.469L79.716 473.569L80.3635 475.096L79.1226 473.995L78.5007 475.533L78.4013 473.877L76.8744 474.525L77.9748 473.284L76.4372 472.662L78.0928 472.563L77.4454 471.036Z" fill="white"/>
<path d="M563.809 656.533L557.417 654.772L557.896 661.385L554.621 655.62L550.284 660.634L552.045 654.242L545.432 654.721L551.197 651.447L546.183 647.109L552.575 648.87L552.096 642.257L555.37 648.022L559.708 643.008L557.947 649.4L564.56 648.921L558.795 652.196L563.809 656.533Z" fill="white"/>
<path d="M533.84 697.768L529.683 696.622L529.994 700.923L527.864 697.174L525.043 700.435L526.189 696.278L521.888 696.589L525.637 694.459L522.376 691.638L526.533 692.784L526.222 688.483L528.351 692.232L531.172 688.971L530.027 693.128L534.328 692.817L530.579 694.947L533.84 697.768Z" fill="white"/>
<path d="M384.977 562.617L380.82 561.471L381.131 565.772L379.001 562.023L376.18 565.284L377.326 561.127L373.025 561.438L376.774 559.308L373.513 556.487L377.67 557.633L377.359 553.332L379.489 557.081L382.31 553.82L381.164 557.977L385.465 557.666L381.716 559.796L384.977 562.617Z" fill="white"/>
<path d="M475.592 651.885L471.435 650.74L471.746 655.041L469.617 651.291L466.796 654.553L467.941 650.395L463.64 650.707L467.389 648.577L464.128 645.756L468.285 646.901L467.974 642.6L470.104 646.35L472.925 643.088L471.78 647.246L476.081 646.934L472.331 649.064L475.592 651.885Z" fill="white"/>
<path d="M234.659 644.405L230.501 643.26L230.813 647.561L228.683 643.812L225.862 647.073L227.007 642.916L222.706 643.227L226.456 641.097L223.194 638.276L227.352 639.421L227.04 635.121L229.17 638.87L231.991 635.609L230.846 639.766L235.147 639.455L231.397 641.584L234.659 644.405Z" fill="white"/>
<path d="M331.142 748.15L321.868 745.596L322.562 755.19L317.811 746.826L311.518 754.101L314.073 744.827L304.478 745.522L312.843 740.771L305.567 734.477L314.841 737.032L314.147 727.438L318.898 735.802L325.191 728.527L322.636 737.801L332.231 737.106L323.866 741.857L331.142 748.15Z" fill="white"/>
<path d="M518.988 668.282L517.389 667.842L517.508 669.496L516.689 668.054L515.604 669.308L516.045 667.709L514.391 667.829L515.833 667.01L514.578 665.925L516.177 666.365L516.057 664.711L516.877 666.153L517.962 664.899L517.521 666.498L519.175 666.378L517.733 667.197L518.988 668.282Z" fill="white"/>
<path d="M911.545 350.379L921.165 350.311L917.882 341.269L924.732 348.022L928.805 339.307L928.874 348.926L937.916 345.643L931.163 352.494L939.878 356.566L930.258 356.635L933.541 365.677L926.691 358.924L922.618 367.639L922.549 358.02L913.507 361.302L920.26 354.452L911.545 350.379Z" fill="white"/>
<path d="M915.246 516.654L916.904 516.642L916.338 515.083L917.519 516.247L918.221 514.744L918.233 516.403L919.792 515.837L918.628 517.018L920.13 517.72L918.472 517.732L919.038 519.291L917.857 518.127L917.155 519.629L917.143 517.971L915.584 518.537L916.748 517.356L915.246 516.654Z" fill="white"/>
<path d="M882.985 316.656L884.644 316.644L884.078 315.085L885.259 316.249L885.961 314.747L885.973 316.405L887.532 315.839L886.367 317.02L887.87 317.722L886.212 317.734L886.778 319.293L885.596 318.129L884.894 319.632L884.882 317.973L883.323 318.539L884.488 317.358L882.985 316.656Z" fill="white"/>
<path d="M973.985 324.656L975.644 324.644L975.078 323.085L976.259 324.249L976.961 322.747L976.973 324.405L978.532 323.839L977.367 325.02L978.87 325.722L977.212 325.734L977.778 327.293L976.596 326.129L975.894 327.632L975.882 325.973L974.323 326.539L975.488 325.358L973.985 324.656Z" fill="white"/>
<path d="M769.985 423.656L771.644 423.644L771.078 422.085L772.259 423.249L772.961 421.747L772.973 423.405L774.532 422.839L773.367 424.02L774.87 424.722L773.212 424.734L773.778 426.293L772.596 425.129L771.894 426.632L771.882 424.973L770.323 425.539L771.488 424.358L769.985 423.656Z" fill="white"/>
<path d="M901.163 492.083L902.822 492.072L902.256 490.513L903.437 491.677L904.139 490.174L904.151 491.833L905.71 491.267L904.546 492.448L906.048 493.15L904.39 493.162L904.956 494.721L903.775 493.557L903.072 495.059L903.061 493.401L901.502 493.967L902.666 492.786L901.163 492.083Z" fill="white"/>
<path d="M1386.8 304.703L1380.88 307.669L1385.65 312.265L1379.36 310.169L1379.49 316.798L1376.53 310.869L1371.93 315.647L1374.03 309.357L1367.4 309.486L1373.33 306.52L1368.55 301.924L1374.84 304.02L1374.71 297.391L1377.68 303.321L1382.27 298.542L1380.18 304.833L1386.8 304.703Z" fill="white"/>
<path d="M1392.1 355.402L1388.25 357.331L1391.35 360.32L1387.26 358.957L1387.35 363.269L1385.42 359.412L1382.43 362.52L1383.79 358.429L1379.48 358.513L1383.34 356.584L1380.23 353.595L1384.32 354.958L1384.24 350.646L1386.17 354.503L1389.15 351.395L1387.79 355.486L1392.1 355.402Z" fill="white"/>
<path d="M1191.04 354.488L1187.19 356.417L1190.29 359.406L1186.2 358.043L1186.29 362.354L1184.36 358.497L1181.37 361.605L1182.73 357.514L1178.42 357.598L1182.28 355.669L1179.17 352.68L1183.26 354.043L1183.18 349.732L1185.11 353.588L1188.09 350.48L1186.73 354.572L1191.04 354.488Z" fill="white"/>
<path d="M1318.11 360.248L1314.26 362.177L1317.36 365.166L1313.27 363.803L1313.36 368.115L1311.43 364.258L1308.44 367.366L1309.8 363.275L1305.49 363.359L1309.35 361.43L1306.24 358.441L1310.33 359.804L1310.25 355.492L1312.18 359.349L1315.16 356.241L1313.8 360.332L1318.11 360.248Z" fill="white"/>
<path d="M1257.09 627.062L1253.24 628.991L1256.35 631.98L1252.26 630.617L1252.34 634.929L1250.41 631.072L1247.42 634.18L1248.78 630.089L1244.47 630.173L1248.33 628.244L1245.22 625.255L1249.31 626.618L1249.23 622.306L1251.16 626.163L1254.15 623.055L1252.78 627.146L1257.09 627.062Z" fill="white"/>
<path d="M1133.99 515.826L1130.14 517.755L1133.24 520.745L1129.15 519.382L1129.24 523.693L1127.31 519.836L1124.32 522.944L1125.68 518.853L1121.37 518.937L1125.23 517.008L1122.12 514.019L1126.21 515.382L1126.13 511.071L1128.06 514.927L1131.04 511.819L1129.68 515.91L1133.99 515.826Z" fill="white"/>
<path d="M1275.11 528.425L1266.5 532.728L1273.44 539.396L1264.31 536.356L1264.5 545.974L1260.19 537.37L1253.53 544.303L1256.57 535.177L1246.95 535.364L1255.55 531.061L1248.62 524.393L1257.75 527.434L1257.56 517.816L1261.86 526.419L1268.53 519.486L1265.49 528.612L1275.11 528.425Z" fill="white"/>
<path d="M1361.34 343.415L1359.86 344.157L1361.05 345.307L1359.48 344.782L1359.51 346.441L1358.77 344.957L1357.62 346.153L1358.14 344.579L1356.49 344.612L1357.97 343.87L1356.77 342.72L1358.35 343.244L1358.32 341.586L1359.06 343.069L1360.21 341.874L1359.68 343.447L1361.34 343.415Z" fill="white"/>
<path d="M636.095 621.334L633.989 625.097L638.239 625.824L634.089 626.994L636.58 630.514L632.818 628.407L632.091 632.657L630.92 628.507L627.401 630.999L629.508 627.236L625.257 626.51L629.407 625.339L626.916 621.819L630.678 623.926L631.405 619.676L632.576 623.826L636.095 621.334Z" fill="white"/>
<path d="M789.792 541.695L787.685 545.458L791.936 546.185L787.785 547.355L790.277 550.875L786.515 548.768L785.788 553.019L784.617 548.868L781.097 551.36L783.204 547.598L778.954 546.871L783.104 545.7L780.612 542.18L784.375 544.287L785.102 540.037L786.273 544.187L789.792 541.695Z" fill="white"/>
<path d="M456.116 507.235L459.342 510.096L460.959 506.099L461.217 510.403L465.188 508.72L462.327 511.946L466.324 513.563L462.02 513.822L463.703 517.792L460.477 514.931L458.86 518.928L458.601 514.624L454.631 516.307L457.492 513.081L453.495 511.464L457.799 511.205L456.116 507.235Z" fill="white"/>
<path d="M530.134 694.177L533.361 697.038L534.977 693.041L535.236 697.345L539.206 695.662L536.345 698.888L540.342 700.505L536.038 700.764L537.721 704.734L534.495 701.873L532.878 705.87L532.62 701.566L528.65 703.249L531.511 700.023L527.513 698.406L531.818 698.147L530.134 694.177Z" fill="white"/>
<path d="M488.164 574.1L491.391 576.961L493.008 572.964L493.266 577.268L497.236 575.585L494.375 578.811L498.373 580.428L494.068 580.686L495.751 584.656L492.525 581.795L490.908 585.793L490.65 581.488L486.68 583.172L489.541 579.945L485.543 578.328L489.848 578.07L488.164 574.1Z" fill="white"/>
<path d="M701.114 687.049L704.341 689.91L705.958 685.912L706.216 690.216L710.186 688.533L707.325 691.759L711.323 693.376L707.018 693.635L708.701 697.605L705.475 694.744L703.858 698.741L703.6 694.437L699.63 696.12L702.491 692.894L698.493 691.277L702.798 691.019L701.114 687.049Z" fill="white"/>
<path d="M450.482 567.933L451.723 569.034L452.345 567.496L452.444 569.152L453.971 568.504L452.871 569.745L454.408 570.367L452.753 570.467L453.4 571.994L452.159 570.893L451.537 572.431L451.438 570.775L449.911 571.423L451.011 570.182L449.474 569.56L451.129 569.46L450.482 567.933Z" fill="white"/>
<path d="M560.259 397.672L561.5 398.773L562.122 397.235L562.221 398.891L563.748 398.243L562.648 399.484L564.185 400.106L562.53 400.206L563.177 401.732L561.936 400.632L561.314 402.17L561.215 400.514L559.688 401.161L560.788 399.921L559.251 399.299L560.906 399.199L560.259 397.672Z" fill="white"/>
<path d="M622.561 464.481L623.802 465.582L624.424 464.044L624.523 465.7L626.05 465.052L624.95 466.293L626.487 466.915L624.832 467.015L625.479 468.542L624.238 467.441L623.616 468.979L623.517 467.323L621.99 467.971L623.09 466.73L621.553 466.108L623.208 466.008L622.561 464.481Z" fill="white"/>
<path d="M456.445 540.249L457.686 541.349L458.308 539.812L458.408 541.467L459.934 540.82L458.834 542.061L460.372 542.683L458.716 542.782L459.363 544.309L458.123 543.209L457.501 544.746L457.401 543.091L455.874 543.738L456.975 542.497L455.437 541.875L457.093 541.776L456.445 540.249Z" fill="white"/>
<path d="M942.809 725.746L936.417 723.985L936.896 730.598L933.621 724.833L929.284 729.848L931.045 723.456L924.432 723.934L930.197 720.66L925.183 716.323L931.575 718.083L931.096 711.471L934.37 717.236L938.708 712.221L936.947 718.613L943.56 718.134L937.795 721.409L942.809 725.746Z" fill="white"/>
<path d="M912.84 766.981L908.683 765.836L908.994 770.137L906.864 766.387L904.043 769.648L905.188 765.491L900.888 765.803L904.637 763.673L901.376 760.852L905.533 761.997L905.222 757.696L907.351 761.445L910.172 758.184L909.027 762.341L913.328 762.03L909.579 764.16L912.84 766.981Z" fill="white"/>
<path d="M763.977 631.83L759.82 630.685L760.131 634.986L758.001 631.236L755.18 634.497L756.326 630.34L752.025 630.652L755.774 628.522L752.513 625.701L756.67 626.846L756.359 622.545L758.489 626.294L761.31 623.033L760.164 627.19L764.465 626.879L760.716 629.009L763.977 631.83Z" fill="white"/>
<path d="M854.592 721.098L850.435 719.953L850.746 724.254L848.617 720.505L845.796 723.766L846.941 719.609L842.64 719.92L846.389 717.79L843.128 714.969L847.285 716.114L846.974 711.813L849.104 715.563L851.925 712.302L850.78 716.459L855.081 716.148L851.331 718.277L854.592 721.098Z" fill="white"/>
<path d="M613.659 713.619L609.501 712.473L609.813 716.774L607.683 713.025L604.862 716.286L606.007 712.129L601.706 712.44L605.456 710.31L602.194 707.489L606.352 708.635L606.04 704.334L608.17 708.083L610.991 704.822L609.846 708.979L614.147 708.668L610.397 710.798L613.659 713.619Z" fill="white"/>
<path d="M710.142 817.364L700.868 814.809L701.562 824.403L696.811 816.039L690.518 823.314L693.073 814.04L683.479 814.735L691.843 809.984L684.567 803.691L693.841 806.245L693.147 796.651L697.898 805.015L704.191 797.74L701.636 807.014L711.231 806.319L702.866 811.071L710.142 817.364Z" fill="white"/>
<path d="M897.988 847.495L896.389 847.055L896.508 848.709L895.689 847.267L894.604 848.521L895.045 846.922L893.391 847.042L894.833 846.223L893.578 845.138L895.177 845.578L895.057 843.924L895.877 845.366L896.962 844.112L896.521 845.711L898.175 845.591L896.733 846.41L897.988 847.495Z" fill="white"/>
<g filter="url(#filter0_f)">
<ellipse cx="1342" cy="92" rx="79" ry="74" fill="url(#paint0_radial)"/>
</g>
<g filter="url(#filter1_dd)">
<ellipse cx="1342" cy="92" rx="79" ry="74" fill="url(#paint1_radial)"/>
</g>
<path d="M1362.89 125.478C1341.34 160.748 1310.32 136.353 1297.5 119.746C1318.09 171.643 1357.77 150.137 1375.03 132.897C1391.08 123.396 1420.81 101.638 1411.4 90.6198C1399.63 76.8469 1389.83 81.3906 1362.89 125.478Z" fill="#FF00E5" fill-opacity="0.55"/>
<path d="M1321.37 63.9742C1335.34 25.0711 1370.65 42.6831 1386.56 56.352C1355.89 9.6973 1321.39 38.7888 1307.98 59.1664C1294.19 71.7192 1269.47 99.0457 1280.92 107.93C1295.23 119.036 1303.91 112.603 1321.37 63.9742Z" fill="#FF00E5" fill-opacity="0.55"/>
<path d="M1315.06 116.716C1300.3 118.521 1315.94 98.9246 1325.6 88.901C1323.72 83.2627 1322.06 70.4075 1330.49 64.0927C1341.03 56.1991 1359.85 71.9862 1354.96 88.901C1351.04 102.433 1382.69 83.2627 1399 71.9862C1390.72 84.2651 1370.32 107.695 1354.96 103.185C1339.83 98.7408 1332.47 119.227 1330.57 130.498C1330.55 130.669 1330.52 130.837 1330.49 131C1330.52 130.835 1330.54 130.667 1330.57 130.498C1331.38 124.872 1329.38 114.966 1315.06 116.716Z" fill="#FF00E5" fill-opacity="0.55"/>
<path d="M289 1023.5C289 985.614 281.538 948.098 267.039 913.096C252.541 878.093 231.29 846.289 204.5 819.5C177.711 792.71 145.907 771.459 110.904 756.961C75.9017 742.462 38.3864 735 0.5 735V1023.5H289Z" fill="url(#paint2_linear)"/>
<path d="M289 1023.5C289 985.614 281.538 948.098 267.039 913.096C252.541 878.093 231.29 846.289 204.5 819.5C177.711 792.71 145.907 771.459 110.904 756.961C75.9017 742.462 38.3864 735 0.5 735V1023.5H289Z" fill="url(#paint3_linear)"/>
<path d="M289 1023.5C289 985.614 281.538 948.098 267.039 913.096C252.541 878.093 231.29 846.289 204.5 819.5C177.711 792.71 145.907 771.459 110.904 756.961C75.9017 742.462 38.3864 735 0.5 735V1023.5H289Z" fill="url(#paint4_linear)"/>
<g filter="url(#filter2_f)">
<path d="M283 995C283 959.28 276.184 923.911 262.942 890.91C249.7 857.91 230.291 827.924 205.823 802.667C181.354 777.409 152.306 757.374 120.337 743.705C88.3678 730.035 54.1033 723 19.5 723V995H283Z" fill="url(#paint5_linear)"/>
<path d="M283 995C283 959.28 276.184 923.911 262.942 890.91C249.7 857.91 230.291 827.924 205.823 802.667C181.354 777.409 152.306 757.374 120.337 743.705C88.3678 730.035 54.1033 723 19.5 723V995H283Z" fill="url(#paint6_linear)"/>
<path d="M283 995C283 959.28 276.184 923.911 262.942 890.91C249.7 857.91 230.291 827.924 205.823 802.667C181.354 777.409 152.306 757.374 120.337 743.705C88.3678 730.035 54.1033 723 19.5 723V995H283Z" fill="url(#paint7_linear)"/>
</g>
<g filter="url(#filter3_ii)">
<path d="M329.01 1024H288.009C382.812 694.677 135.504 668.163 0 696.072V662.681C400.812 590.119 386.345 873.326 329.01 1024Z" fill="#FF00FF"/>
</g>
<path d="M329.01 1024H288.009C382.812 694.677 135.504 668.163 0 696.072V662.681C400.812 590.119 386.345 873.326 329.01 1024Z" stroke="#FF00E1" stroke-opacity="0.55"/>
<ellipse cx="906.333" cy="767.958" rx="1.46667" ry="2.29167" fill="#FF7A00" fill-opacity="0.5"/>
<ellipse cx="950.333" cy="777.125" rx="1.46666" ry="2.29167" fill="#FF7A00" fill-opacity="0.5"/>
<ellipse cx="962.067" cy="772.542" rx="1.46666" ry="2.29166" fill="#FF7A00" fill-opacity="0.5"/>
<ellipse cx="979.667" cy="772.542" rx="1.46667" ry="2.29166" fill="#FF7A00" fill-opacity="0.5"/>
<ellipse cx="984.067" cy="761.083" rx="2.93333" ry="4.58334" fill="#FF7A00" fill-opacity="0.5"/>
<ellipse cx="931.267" cy="779.417" rx="2.93333" ry="4.58334" fill="#FF7A00" fill-opacity="0.5"/>
<ellipse cx="957.667" cy="779.417" rx="2.93333" ry="4.58334" fill="#FF7A00" fill-opacity="0.5"/>
<ellipse cx="972.333" cy="774.833" rx="2.93333" ry="4.58334" fill="#FF7A00" fill-opacity="0.5"/>
<ellipse cx="938.6" cy="777.125" rx="1.46667" ry="2.29167" fill="#FF7A00" fill-opacity="0.5"/>
<ellipse cx="926.867" cy="772.542" rx="1.46667" ry="2.29166" fill="#FF7A00" fill-opacity="0.5"/>
<ellipse cx="918.067" cy="772.542" rx="1.46667" ry="2.29166" fill="#FF7A00" fill-opacity="0.5"/>
<ellipse cx="910.733" cy="774.833" rx="2.93333" ry="4.58334" fill="#FF7A00" fill-opacity="0.5"/>
<path d="M905.469 756.084C905.049 757.766 904.845 759.561 904.869 761.366C904.892 763.172 905.143 764.952 905.608 766.605C906.072 768.259 906.74 769.754 907.574 771.004C908.407 772.254 909.391 773.236 910.467 773.892C911.544 774.549 912.692 774.868 913.848 774.83C915.003 774.793 916.143 774.401 917.201 773.676C918.259 772.951 919.216 771.907 920.016 770.604C920.816 769.301 921.444 767.765 921.864 766.083L913.667 761.083L905.469 756.084Z" fill="#000AFF"/>
<path d="M925.4 765.667C925.4 767.472 925.628 769.26 926.07 770.929C926.512 772.597 927.16 774.113 927.977 775.389C928.795 776.666 929.765 777.679 930.832 778.37C931.9 779.061 933.044 779.417 934.2 779.417C935.356 779.417 936.5 779.061 937.568 778.37C938.635 777.679 939.605 776.666 940.422 775.389C941.24 774.113 941.888 772.597 942.33 770.929C942.772 769.26 943 767.472 943 765.667H934.2L925.4 765.667Z" fill="#000AFF"/>
<path d="M946.02 767.592C946.182 769.38 946.568 771.1 947.155 772.655C947.742 774.21 948.52 775.569 949.444 776.655C950.367 777.74 951.418 778.531 952.537 778.982C953.657 779.432 954.821 779.534 955.966 779.281C957.11 779.028 958.211 778.426 959.206 777.508C960.202 776.59 961.071 775.375 961.766 773.932C962.461 772.489 962.967 770.847 963.255 769.098C963.544 767.35 963.609 765.529 963.447 763.741L954.734 765.667L946.02 767.592Z" fill="#000AFF"/>
<path d="M966.929 765.483C967.337 767.369 968.002 769.095 968.879 770.54C969.755 771.985 970.822 773.116 972.005 773.854C973.189 774.592 974.461 774.92 975.733 774.814C977.006 774.708 978.248 774.172 979.375 773.243C980.502 772.313 981.486 771.012 982.26 769.43C983.033 767.848 983.578 766.022 983.855 764.079C984.133 762.136 984.137 760.122 983.868 758.175C983.598 756.229 983.062 754.398 982.295 752.808L975.267 761.083L966.929 765.483Z" fill="#000AFF"/>
<g filter="url(#filter4_d)">
<ellipse cx="943" cy="749.167" rx="44" ry="22" fill="#FF00C8"/>
</g>
<path fill-rule="evenodd" clip-rule="evenodd" d="M967.89 710.737C974.491 720.173 978.2 732.971 978.2 746.315C978.2 748.856 977.289 751.373 975.52 753.72C973.751 756.068 971.159 758.202 967.89 759.999C964.621 761.796 960.741 763.221 956.47 764.194C952.2 765.166 947.622 765.667 943 765.667C938.377 765.667 933.8 765.166 929.529 764.194C925.259 763.221 921.378 761.796 918.11 759.999C914.841 758.202 912.248 756.068 910.479 753.72C908.71 751.373 907.8 748.856 907.8 746.315C907.8 732.97 911.508 720.173 918.11 710.737C924.711 701.301 933.664 696 943 696C952.335 696 961.289 701.301 967.89 710.737Z" fill="url(#paint8_radial)"/>
<ellipse cx="943" cy="729" rx="8.8" ry="13.75" fill="#FF0000"/>
<ellipse cx="947.4" cy="726.708" rx="1.46667" ry="2.29167" fill="#000AFF"/>
<ellipse cx="940.067" cy="724.417" rx="2.93333" ry="4.58333" fill="#000AFF"/>
<path d="M945.817 734.864C945.599 736.031 945.094 737.015 944.412 737.601C943.73 738.186 942.928 738.324 942.181 737.984C941.434 737.645 940.804 736.855 940.429 735.79C940.055 734.724 939.966 733.47 940.184 732.303L943 733.583L945.817 734.864Z" fill="#000AFF"/>
<path d="M942.092 715.761C942.199 714.738 942.036 713.796 941.897 712.816C941.797 712.116 941.693 711.354 941.54 710.683C941.235 709.351 940.961 708.143 940.532 706.971C940.33 706.419 939.981 706.01 939.622 705.729C939.298 705.476 938.892 704.793 938.517 704.793C938.041 704.793 937.845 704.888 937.477 705.402C937.359 705.567 937.252 705.709 937.138 705.887C937.012 706.084 937.004 706.427 936.827 706.519" stroke="#FF0000" stroke-linecap="round" stroke-linejoin="round"/>
<path d="M948.527 718.097C949.035 715.565 948.851 712.611 948.039 710.328C947.876 709.869 947.744 709.313 947.501 708.934C947.297 708.615 947.009 708.286 946.837 707.919C946.519 707.238 945.93 706.949 945.523 706.44C945.373 706.253 945.396 707.032 945.374 707.129C945.325 707.346 945.271 707.844 945.147 707.941" stroke="#FF0000" stroke-linecap="round" stroke-linejoin="round"/>
<path d="M943 742.75L951.369 750.667L948.173 763.478H937.828L934.631 750.667L943 742.75Z" fill="#FF0000"/>
</g>
<defs>
<filter id="filter0_f" x="1248" y="3" width="188" height="178" filterUnits="userSpaceOnUse" color-interpolation-filters="sRGB">
<feFlood flood-opacity="0" result="BackgroundImageFix"/>
<feBlend mode="normal" in="SourceGraphic" in2="BackgroundImageFix" result="shape"/>
<feGaussianBlur stdDeviation="7.5" result="effect1_foregroundBlur"/>
</filter>
<filter id="filter1_dd" x="1245" y="9" width="186" height="176" filterUnits="userSpaceOnUse" color-interpolation-filters="sRGB">
<feFlood flood-opacity="0" result="BackgroundImageFix"/>
<feColorMatrix in="SourceAlpha" type="matrix" values="0 0 0 0 0 0 0 0 0 0 0 0 0 0 0 0 0 0 127 0"/>
<feMorphology radius="3" operator="dilate" in="SourceAlpha" result="effect1_dropShadow"/>
<feOffset dx="-4" dy="5"/>
<feGaussianBlur stdDeviation="5.5"/>
<feColorMatrix type="matrix" values="0 0 0 0 1 0 0 0 0 0 0 0 0 0 0.9 0 0 0 0.25 0"/>
<feBlend mode="normal" in2="BackgroundImageFix" result="effect1_dropShadow"/>
<feColorMatrix in="SourceAlpha" type="matrix" values="0 0 0 0 0 0 0 0 0 0 0 0 0 0 0 0 0 0 127 0"/>
<feMorphology radius="1" operator="dilate" in="SourceAlpha" result="effect2_dropShadow"/>
<feOffset dx="-4" dy="5"/>
<feGaussianBlur stdDeviation="4.5"/>
<feColorMatrix type="matrix" values="0 0 0 0 0 0 0 0 0 0.82 0 0 0 0 1 0 0 0 0.25 0"/>
<feBlend mode="normal" in2="effect1_dropShadow" result="effect2_dropShadow"/>
<feBlend mode="normal" in="SourceGraphic" in2="effect2_dropShadow" result="shape"/>
</filter>
<filter id="filter2_f" x="-16.5" y="687" width="335.5" height="344" filterUnits="userSpaceOnUse" color-interpolation-filters="sRGB">
<feFlood flood-opacity="0" result="BackgroundImageFix"/>
<feBlend mode="normal" in="SourceGraphic" in2="BackgroundImageFix" result="shape"/>
<feGaussianBlur stdDeviation="18" result="effect1_foregroundBlur"/>
</filter>
<filter id="filter3_ii" x="-14.5" y="641.5" width="383" height="401" filterUnits="userSpaceOnUse" color-interpolation-filters="sRGB">
<feFlood flood-opacity="0" result="BackgroundImageFix"/>
<feBlend mode="normal" in="SourceGraphic" in2="BackgroundImageFix" result="shape"/>
<feColorMatrix in="SourceAlpha" type="matrix" values="0 0 0 0 0 0 0 0 0 0 0 0 0 0 0 0 0 0 127 0" result="hardAlpha"/>
<feOffset dx="-14" dy="20"/>
<feGaussianBlur stdDeviation="9"/>
<feComposite in2="hardAlpha" operator="arithmetic" k2="-1" k3="1"/>
<feColorMatrix type="matrix" values="0 0 0 0 1 0 0 0 0 0.525 0 0 0 0 1 0 0 0 0.49 0"/>
<feBlend mode="normal" in2="shape" result="effect1_innerShadow"/>
<feColorMatrix in="SourceAlpha" type="matrix" values="0 0 0 0 0 0 0 0 0 0 0 0 0 0 0 0 0 0 127 0" result="hardAlpha"/>
<feOffset dx="20" dy="-16"/>
<feGaussianBlur stdDeviation="4.5"/>
<feComposite in2="hardAlpha" operator="arithmetic" k2="-1" k3="1"/>
<feColorMatrix type="matrix" values="0 0 0 0 0.341667 0 0 0 0 0 0 0 0 0 0.3075 0 0 0 0.55 0"/>
<feBlend mode="normal" in2="effect1_innerShadow" result="effect2_innerShadow"/>
</filter>
<filter id="filter4_d" x="899" y="727.167" width="88" height="44.75" filterUnits="userSpaceOnUse" color-interpolation-filters="sRGB">
<feFlood flood-opacity="0" result="BackgroundImageFix"/>
<feColorMatrix in="SourceAlpha" type="matrix" values="0 0 0 0 0 0 0 0 0 0 0 0 0 0 0 0 0 0 127 0"/>
<feOffset dy="0.75"/>
<feColorMatrix type="matrix" values="0 0 0 0 0.803922 0 0 0 0 0 0 0 0 0 0.784314 0 0 0 1 0"/>
<feBlend mode="normal" in2="BackgroundImageFix" result="effect1_dropShadow"/>
<feBlend mode="normal" in="SourceGraphic" in2="effect1_dropShadow" result="shape"/>
</filter>
<radialGradient id="paint0_radial" cx="0" cy="0" r="1" gradientUnits="userSpaceOnUse" gradientTransform="translate(1342 92) rotate(90) scale(74 79)">
<stop offset="0.895833" stop-color="#007A95"/>
<stop offset="1" stop-color="#9CD300"/>
</radialGradient>
<radialGradient id="paint1_radial" cx="0" cy="0" r="1" gradientUnits="userSpaceOnUse" gradientTransform="translate(1342 92) rotate(90) scale(74 79)">
<stop offset="0.895833" stop-color="#007A95"/>
<stop offset="1" stop-color="#9CD300"/>
</radialGradient>
<linearGradient id="paint2_linear" x1="226" y1="837.5" x2="169" y2="886" gradientUnits="userSpaceOnUse">
<stop stop-color="#FF0000"/>
<stop offset="1" stop-color="#FF0000" stop-opacity="0.4"/>
</linearGradient>
<linearGradient id="paint3_linear" x1="109" y1="881" x2="169" y2="835" gradientUnits="userSpaceOnUse">
<stop stop-color="#FF6400"/>
<stop offset="1" stop-color="#FF6400" stop-opacity="0.1"/>
</linearGradient>
<linearGradient id="paint4_linear" x1="-3.63661e-06" y1="1024" x2="116.5" y2="943.5" gradientUnits="userSpaceOnUse">
<stop stop-color="white"/>
<stop offset="1" stop-color="#FFFF00" stop-opacity="0.05"/>
</linearGradient>
<linearGradient id="paint5_linear" x1="225.459" y1="819.638" x2="172.018" y2="863.689" gradientUnits="userSpaceOnUse">
<stop stop-color="#FF0000"/>
<stop offset="1" stop-color="#FF0000" stop-opacity="0.4"/>
</linearGradient>
<linearGradient id="paint6_linear" x1="118.598" y1="860.65" x2="174.676" y2="819" gradientUnits="userSpaceOnUse">
<stop stop-color="#FF6400"/>
<stop offset="1" stop-color="#FF6400" stop-opacity="0.1"/>
</linearGradient>
<linearGradient id="paint7_linear" x1="19.0433" y1="995.471" x2="127.606" y2="922.8" gradientUnits="userSpaceOnUse">
<stop stop-color="white"/>
<stop offset="1" stop-color="#FFFF00" stop-opacity="0.05"/>
</linearGradient>
<radialGradient id="paint8_radial" cx="0" cy="0" r="1" gradientUnits="userSpaceOnUse" gradientTransform="translate(943 746.315) rotate(90) scale(19.3519 35.2)">
<stop offset="0.940669" stop-color="#00FF00"/>
<stop offset="1" stop-color="#BCFFBC"/>
</radialGradient>
<clipPath id="clip0">
<rect width="1440" height="1024" fill="white"/>
</clipPath>
</defs>
</svg>
